<?xml version="1.0" encoding="utf-8"?>
<svg xmlns="http://www.w3.org/2000/svg" xmlns:xlink="http://www.w3.org/1999/xlink" width="600" height="400" viewBox="0 0 2400 1600">
<defs>
  <clipPath id="clip300">
    <rect x="0" y="0" width="2400" height="1600"/>
  </clipPath>
</defs>
<path clip-path="url(#clip300)" d="M0 1600 L2400 1600 L2400 0 L0 0  Z" fill="#ffffff" fill-rule="evenodd" fill-opacity="1"/>
<defs>
  <clipPath id="clip301">
    <rect x="480" y="0" width="1681" height="1600"/>
  </clipPath>
</defs>
<path clip-path="url(#clip300)" d="M224.584 1486.45 L2352.76 1486.45 L2352.76 47.2441 L224.584 47.2441  Z" fill="#ffffff" fill-rule="evenodd" fill-opacity="1"/>
<defs>
  <clipPath id="clip302">
    <rect x="224" y="47" width="2129" height="1440"/>
  </clipPath>
</defs>
<polyline clip-path="url(#clip302)" style="stroke:#000000; stroke-linecap:round; stroke-linejoin:round; stroke-width:2; stroke-opacity:0.1; fill:none" points="284.815,1486.45 284.815,47.2441 "/>
<polyline clip-path="url(#clip302)" style="stroke:#000000; stroke-linecap:round; stroke-linejoin:round; stroke-width:2; stroke-opacity:0.1; fill:none" points="603.499,1486.45 603.499,47.2441 "/>
<polyline clip-path="url(#clip302)" style="stroke:#000000; stroke-linecap:round; stroke-linejoin:round; stroke-width:2; stroke-opacity:0.1; fill:none" points="922.183,1486.45 922.183,47.2441 "/>
<polyline clip-path="url(#clip302)" style="stroke:#000000; stroke-linecap:round; stroke-linejoin:round; stroke-width:2; stroke-opacity:0.1; fill:none" points="1240.87,1486.45 1240.87,47.2441 "/>
<polyline clip-path="url(#clip302)" style="stroke:#000000; stroke-linecap:round; stroke-linejoin:round; stroke-width:2; stroke-opacity:0.1; fill:none" points="1559.55,1486.45 1559.55,47.2441 "/>
<polyline clip-path="url(#clip302)" style="stroke:#000000; stroke-linecap:round; stroke-linejoin:round; stroke-width:2; stroke-opacity:0.1; fill:none" points="1878.24,1486.45 1878.24,47.2441 "/>
<polyline clip-path="url(#clip302)" style="stroke:#000000; stroke-linecap:round; stroke-linejoin:round; stroke-width:2; stroke-opacity:0.1; fill:none" points="2196.92,1486.45 2196.92,47.2441 "/>
<polyline clip-path="url(#clip300)" style="stroke:#000000; stroke-linecap:round; stroke-linejoin:round; stroke-width:4; stroke-opacity:1; fill:none" points="224.584,1486.45 2352.76,1486.45 "/>
<polyline clip-path="url(#clip300)" style="stroke:#000000; stroke-linecap:round; stroke-linejoin:round; stroke-width:4; stroke-opacity:1; fill:none" points="284.815,1486.45 284.815,1467.55 "/>
<polyline clip-path="url(#clip300)" style="stroke:#000000; stroke-linecap:round; stroke-linejoin:round; stroke-width:4; stroke-opacity:1; fill:none" points="603.499,1486.45 603.499,1467.55 "/>
<polyline clip-path="url(#clip300)" style="stroke:#000000; stroke-linecap:round; stroke-linejoin:round; stroke-width:4; stroke-opacity:1; fill:none" points="922.183,1486.45 922.183,1467.55 "/>
<polyline clip-path="url(#clip300)" style="stroke:#000000; stroke-linecap:round; stroke-linejoin:round; stroke-width:4; stroke-opacity:1; fill:none" points="1240.87,1486.45 1240.87,1467.55 "/>
<polyline clip-path="url(#clip300)" style="stroke:#000000; stroke-linecap:round; stroke-linejoin:round; stroke-width:4; stroke-opacity:1; fill:none" points="1559.55,1486.45 1559.55,1467.55 "/>
<polyline clip-path="url(#clip300)" style="stroke:#000000; stroke-linecap:round; stroke-linejoin:round; stroke-width:4; stroke-opacity:1; fill:none" points="1878.24,1486.45 1878.24,1467.55 "/>
<polyline clip-path="url(#clip300)" style="stroke:#000000; stroke-linecap:round; stroke-linejoin:round; stroke-width:4; stroke-opacity:1; fill:none" points="2196.92,1486.45 2196.92,1467.55 "/>
<path clip-path="url(#clip300)" d="M284.815 1517.37 Q281.204 1517.37 279.375 1520.93 Q277.57 1524.47 277.57 1531.6 Q277.57 1538.71 279.375 1542.27 Q281.204 1545.82 284.815 1545.82 Q288.45 1545.82 290.255 1542.27 Q292.084 1538.71 292.084 1531.6 Q292.084 1524.47 290.255 1520.93 Q288.45 1517.37 284.815 1517.37 M284.815 1513.66 Q290.625 1513.66 293.681 1518.27 Q296.76 1522.85 296.76 1531.6 Q296.76 1540.33 293.681 1544.94 Q290.625 1549.52 284.815 1549.52 Q279.005 1549.52 275.926 1544.94 Q272.871 1540.33 272.871 1531.6 Q272.871 1522.85 275.926 1518.27 Q279.005 1513.66 284.815 1513.66 Z" fill="#000000" fill-rule="nonzero" fill-opacity="1" /><path clip-path="url(#clip300)" d="M593.881 1544.91 L601.52 1544.91 L601.52 1518.55 L593.21 1520.21 L593.21 1515.95 L601.474 1514.29 L606.15 1514.29 L606.15 1544.91 L613.789 1544.91 L613.789 1548.85 L593.881 1548.85 L593.881 1544.91 Z" fill="#000000" fill-rule="nonzero" fill-opacity="1" /><path clip-path="url(#clip300)" d="M916.836 1544.91 L933.155 1544.91 L933.155 1548.85 L911.211 1548.85 L911.211 1544.91 Q913.873 1542.16 918.456 1537.53 Q923.063 1532.88 924.243 1531.53 Q926.489 1529.01 927.368 1527.27 Q928.271 1525.51 928.271 1523.82 Q928.271 1521.07 926.327 1519.33 Q924.406 1517.6 921.304 1517.6 Q919.105 1517.6 916.651 1518.36 Q914.22 1519.13 911.443 1520.68 L911.443 1515.95 Q914.267 1514.82 916.72 1514.24 Q919.174 1513.66 921.211 1513.66 Q926.581 1513.66 929.776 1516.35 Q932.97 1519.03 932.97 1523.52 Q932.97 1525.65 932.16 1527.57 Q931.373 1529.47 929.267 1532.07 Q928.688 1532.74 925.586 1535.95 Q922.484 1539.15 916.836 1544.91 Z" fill="#000000" fill-rule="nonzero" fill-opacity="1" /><path clip-path="url(#clip300)" d="M1245.12 1530.21 Q1248.47 1530.93 1250.35 1533.2 Q1252.24 1535.47 1252.24 1538.8 Q1252.24 1543.92 1248.73 1546.72 Q1245.21 1549.52 1238.73 1549.52 Q1236.55 1549.52 1234.24 1549.08 Q1231.94 1548.66 1229.49 1547.81 L1229.49 1543.29 Q1231.43 1544.43 1233.75 1545.01 Q1236.06 1545.58 1238.59 1545.58 Q1242.99 1545.58 1245.28 1543.85 Q1247.59 1542.11 1247.59 1538.8 Q1247.59 1535.75 1245.44 1534.03 Q1243.31 1532.3 1239.49 1532.3 L1235.46 1532.3 L1235.46 1528.45 L1239.68 1528.45 Q1243.12 1528.45 1244.95 1527.09 Q1246.78 1525.7 1246.78 1523.11 Q1246.78 1520.45 1244.88 1519.03 Q1243.01 1517.6 1239.49 1517.6 Q1237.57 1517.6 1235.37 1518.01 Q1233.17 1518.43 1230.53 1519.31 L1230.53 1515.14 Q1233.19 1514.4 1235.51 1514.03 Q1237.85 1513.66 1239.91 1513.66 Q1245.23 1513.66 1248.33 1516.09 Q1251.43 1518.5 1251.43 1522.62 Q1251.43 1525.49 1249.79 1527.48 Q1248.15 1529.45 1245.12 1530.21 Z" fill="#000000" fill-rule="nonzero" fill-opacity="1" /><path clip-path="url(#clip300)" d="M1562.56 1518.36 L1550.76 1536.81 L1562.56 1536.81 L1562.56 1518.36 M1561.33 1514.29 L1567.21 1514.29 L1567.21 1536.81 L1572.14 1536.81 L1572.14 1540.7 L1567.21 1540.7 L1567.21 1548.85 L1562.56 1548.85 L1562.56 1540.7 L1546.96 1540.7 L1546.96 1536.19 L1561.33 1514.29 Z" fill="#000000" fill-rule="nonzero" fill-opacity="1" /><path clip-path="url(#clip300)" d="M1868.51 1514.29 L1886.87 1514.29 L1886.87 1518.22 L1872.8 1518.22 L1872.8 1526.7 Q1873.81 1526.35 1874.83 1526.19 Q1875.85 1526 1876.87 1526 Q1882.66 1526 1886.04 1529.17 Q1889.42 1532.34 1889.42 1537.76 Q1889.42 1543.34 1885.94 1546.44 Q1882.47 1549.52 1876.15 1549.52 Q1873.98 1549.52 1871.71 1549.15 Q1869.46 1548.78 1867.05 1548.04 L1867.05 1543.34 Q1869.14 1544.47 1871.36 1545.03 Q1873.58 1545.58 1876.06 1545.58 Q1880.06 1545.58 1882.4 1543.48 Q1884.74 1541.37 1884.74 1537.76 Q1884.74 1534.15 1882.4 1532.04 Q1880.06 1529.94 1876.06 1529.94 Q1874.18 1529.94 1872.31 1530.35 Q1870.46 1530.77 1868.51 1531.65 L1868.51 1514.29 Z" fill="#000000" fill-rule="nonzero" fill-opacity="1" /><path clip-path="url(#clip300)" d="M2197.32 1529.7 Q2194.18 1529.7 2192.32 1531.86 Q2190.5 1534.01 2190.5 1537.76 Q2190.5 1541.49 2192.32 1543.66 Q2194.18 1545.82 2197.32 1545.82 Q2200.47 1545.82 2202.3 1543.66 Q2204.15 1541.49 2204.15 1537.76 Q2204.15 1534.01 2202.3 1531.86 Q2200.47 1529.7 2197.32 1529.7 M2206.61 1515.05 L2206.61 1519.31 Q2204.85 1518.48 2203.04 1518.04 Q2201.26 1517.6 2199.5 1517.6 Q2194.87 1517.6 2192.42 1520.72 Q2189.99 1523.85 2189.64 1530.17 Q2191.01 1528.15 2193.07 1527.09 Q2195.13 1526 2197.6 1526 Q2202.81 1526 2205.82 1529.17 Q2208.85 1532.32 2208.85 1537.76 Q2208.85 1543.08 2205.7 1546.3 Q2202.56 1549.52 2197.32 1549.52 Q2191.33 1549.52 2188.16 1544.94 Q2184.99 1540.33 2184.99 1531.6 Q2184.99 1523.41 2188.88 1518.55 Q2192.76 1513.66 2199.32 1513.66 Q2201.07 1513.66 2202.86 1514.01 Q2204.66 1514.36 2206.61 1515.05 Z" fill="#000000" fill-rule="nonzero" fill-opacity="1" /><polyline clip-path="url(#clip302)" style="stroke:#000000; stroke-linecap:round; stroke-linejoin:round; stroke-width:2; stroke-opacity:0.1; fill:none" points="224.584,1285.58 2352.76,1285.58 "/>
<polyline clip-path="url(#clip302)" style="stroke:#000000; stroke-linecap:round; stroke-linejoin:round; stroke-width:2; stroke-opacity:0.1; fill:none" points="224.584,1026.25 2352.76,1026.25 "/>
<polyline clip-path="url(#clip302)" style="stroke:#000000; stroke-linecap:round; stroke-linejoin:round; stroke-width:2; stroke-opacity:0.1; fill:none" points="224.584,766.912 2352.76,766.912 "/>
<polyline clip-path="url(#clip302)" style="stroke:#000000; stroke-linecap:round; stroke-linejoin:round; stroke-width:2; stroke-opacity:0.1; fill:none" points="224.584,507.577 2352.76,507.577 "/>
<polyline clip-path="url(#clip302)" style="stroke:#000000; stroke-linecap:round; stroke-linejoin:round; stroke-width:2; stroke-opacity:0.1; fill:none" points="224.584,248.243 2352.76,248.243 "/>
<polyline clip-path="url(#clip300)" style="stroke:#000000; stroke-linecap:round; stroke-linejoin:round; stroke-width:4; stroke-opacity:1; fill:none" points="224.584,1486.45 224.584,47.2441 "/>
<polyline clip-path="url(#clip300)" style="stroke:#000000; stroke-linecap:round; stroke-linejoin:round; stroke-width:4; stroke-opacity:1; fill:none" points="224.584,1285.58 243.482,1285.58 "/>
<polyline clip-path="url(#clip300)" style="stroke:#000000; stroke-linecap:round; stroke-linejoin:round; stroke-width:4; stroke-opacity:1; fill:none" points="224.584,1026.25 243.482,1026.25 "/>
<polyline clip-path="url(#clip300)" style="stroke:#000000; stroke-linecap:round; stroke-linejoin:round; stroke-width:4; stroke-opacity:1; fill:none" points="224.584,766.912 243.482,766.912 "/>
<polyline clip-path="url(#clip300)" style="stroke:#000000; stroke-linecap:round; stroke-linejoin:round; stroke-width:4; stroke-opacity:1; fill:none" points="224.584,507.577 243.482,507.577 "/>
<polyline clip-path="url(#clip300)" style="stroke:#000000; stroke-linecap:round; stroke-linejoin:round; stroke-width:4; stroke-opacity:1; fill:none" points="224.584,248.243 243.482,248.243 "/>
<path clip-path="url(#clip300)" d="M50.9921 1286.03 L80.6679 1286.03 L80.6679 1289.97 L50.9921 1289.97 L50.9921 1286.03 Z" fill="#000000" fill-rule="nonzero" fill-opacity="1" /><path clip-path="url(#clip300)" d="M100.76 1271.38 Q97.1493 1271.38 95.3206 1274.94 Q93.515 1278.49 93.515 1285.61 Q93.515 1292.72 95.3206 1296.29 Q97.1493 1299.83 100.76 1299.83 Q104.395 1299.83 106.2 1296.29 Q108.029 1292.72 108.029 1285.61 Q108.029 1278.49 106.2 1274.94 Q104.395 1271.38 100.76 1271.38 M100.76 1267.68 Q106.571 1267.68 109.626 1272.28 Q112.705 1276.86 112.705 1285.61 Q112.705 1294.34 109.626 1298.95 Q106.571 1303.53 100.76 1303.53 Q94.9502 1303.53 91.8715 1298.95 Q88.816 1294.34 88.816 1285.61 Q88.816 1276.86 91.8715 1272.28 Q94.9502 1267.68 100.76 1267.68 Z" fill="#000000" fill-rule="nonzero" fill-opacity="1" /><path clip-path="url(#clip300)" d="M120.922 1296.98 L125.807 1296.98 L125.807 1302.86 L120.922 1302.86 L120.922 1296.98 Z" fill="#000000" fill-rule="nonzero" fill-opacity="1" /><path clip-path="url(#clip300)" d="M145.992 1271.38 Q142.381 1271.38 140.552 1274.94 Q138.746 1278.49 138.746 1285.61 Q138.746 1292.72 140.552 1296.29 Q142.381 1299.83 145.992 1299.83 Q149.626 1299.83 151.431 1296.29 Q153.26 1292.72 153.26 1285.61 Q153.26 1278.49 151.431 1274.94 Q149.626 1271.38 145.992 1271.38 M145.992 1267.68 Q151.802 1267.68 154.857 1272.28 Q157.936 1276.86 157.936 1285.61 Q157.936 1294.34 154.857 1298.95 Q151.802 1303.53 145.992 1303.53 Q140.181 1303.53 137.103 1298.95 Q134.047 1294.34 134.047 1285.61 Q134.047 1276.86 137.103 1272.28 Q140.181 1267.68 145.992 1267.68 Z" fill="#000000" fill-rule="nonzero" fill-opacity="1" /><path clip-path="url(#clip300)" d="M179.001 1272.37 L167.195 1290.82 L179.001 1290.82 L179.001 1272.37 M177.774 1268.3 L183.653 1268.3 L183.653 1290.82 L188.584 1290.82 L188.584 1294.71 L183.653 1294.71 L183.653 1302.86 L179.001 1302.86 L179.001 1294.71 L163.399 1294.71 L163.399 1290.2 L177.774 1268.3 Z" fill="#000000" fill-rule="nonzero" fill-opacity="1" /><path clip-path="url(#clip300)" d="M53.0754 1026.7 L82.7512 1026.7 L82.7512 1030.63 L53.0754 1030.63 L53.0754 1026.7 Z" fill="#000000" fill-rule="nonzero" fill-opacity="1" /><path clip-path="url(#clip300)" d="M102.844 1012.04 Q99.2326 1012.04 97.4039 1015.61 Q95.5984 1019.15 95.5984 1026.28 Q95.5984 1033.39 97.4039 1036.95 Q99.2326 1040.49 102.844 1040.49 Q106.478 1040.49 108.283 1036.95 Q110.112 1033.39 110.112 1026.28 Q110.112 1019.15 108.283 1015.61 Q106.478 1012.04 102.844 1012.04 M102.844 1008.34 Q108.654 1008.34 111.709 1012.95 Q114.788 1017.53 114.788 1026.28 Q114.788 1035.01 111.709 1039.61 Q108.654 1044.2 102.844 1044.2 Q97.0335 1044.2 93.9549 1039.61 Q90.8993 1035.01 90.8993 1026.28 Q90.8993 1017.53 93.9549 1012.95 Q97.0335 1008.34 102.844 1008.34 Z" fill="#000000" fill-rule="nonzero" fill-opacity="1" /><path clip-path="url(#clip300)" d="M123.006 1037.65 L127.89 1037.65 L127.89 1043.53 L123.006 1043.53 L123.006 1037.65 Z" fill="#000000" fill-rule="nonzero" fill-opacity="1" /><path clip-path="url(#clip300)" d="M148.075 1012.04 Q144.464 1012.04 142.635 1015.61 Q140.83 1019.15 140.83 1026.28 Q140.83 1033.39 142.635 1036.95 Q144.464 1040.49 148.075 1040.49 Q151.709 1040.49 153.515 1036.95 Q155.343 1033.39 155.343 1026.28 Q155.343 1019.15 153.515 1015.61 Q151.709 1012.04 148.075 1012.04 M148.075 1008.34 Q153.885 1008.34 156.941 1012.95 Q160.019 1017.53 160.019 1026.28 Q160.019 1035.01 156.941 1039.61 Q153.885 1044.2 148.075 1044.2 Q142.265 1044.2 139.186 1039.61 Q136.131 1035.01 136.131 1026.28 Q136.131 1017.53 139.186 1012.95 Q142.265 1008.34 148.075 1008.34 Z" fill="#000000" fill-rule="nonzero" fill-opacity="1" /><path clip-path="url(#clip300)" d="M172.265 1039.59 L188.584 1039.59 L188.584 1043.53 L166.64 1043.53 L166.64 1039.59 Q169.302 1036.84 173.885 1032.21 Q178.491 1027.55 179.672 1026.21 Q181.917 1023.69 182.797 1021.95 Q183.7 1020.19 183.7 1018.5 Q183.7 1015.75 181.755 1014.01 Q179.834 1012.28 176.732 1012.28 Q174.533 1012.28 172.079 1013.04 Q169.649 1013.8 166.871 1015.35 L166.871 1010.63 Q169.695 1009.5 172.149 1008.92 Q174.603 1008.34 176.64 1008.34 Q182.01 1008.34 185.204 1011.03 Q188.399 1013.71 188.399 1018.2 Q188.399 1020.33 187.589 1022.25 Q186.802 1024.15 184.695 1026.74 Q184.116 1027.41 181.015 1030.63 Q177.913 1033.83 172.265 1039.59 Z" fill="#000000" fill-rule="nonzero" fill-opacity="1" /><path clip-path="url(#clip300)" d="M101.246 752.71 Q97.6354 752.71 95.8067 756.275 Q94.0012 759.817 94.0012 766.946 Q94.0012 774.053 95.8067 777.618 Q97.6354 781.159 101.246 781.159 Q104.881 781.159 106.686 777.618 Q108.515 774.053 108.515 766.946 Q108.515 759.817 106.686 756.275 Q104.881 752.71 101.246 752.71 M101.246 749.007 Q107.057 749.007 110.112 753.613 Q113.191 758.196 113.191 766.946 Q113.191 775.673 110.112 780.28 Q107.057 784.863 101.246 784.863 Q95.4363 784.863 92.3576 780.28 Q89.3021 775.673 89.3021 766.946 Q89.3021 758.196 92.3576 753.613 Q95.4363 749.007 101.246 749.007 Z" fill="#000000" fill-rule="nonzero" fill-opacity="1" /><path clip-path="url(#clip300)" d="M121.408 778.312 L126.293 778.312 L126.293 784.192 L121.408 784.192 L121.408 778.312 Z" fill="#000000" fill-rule="nonzero" fill-opacity="1" /><path clip-path="url(#clip300)" d="M146.478 752.71 Q142.867 752.71 141.038 756.275 Q139.232 759.817 139.232 766.946 Q139.232 774.053 141.038 777.618 Q142.867 781.159 146.478 781.159 Q150.112 781.159 151.918 777.618 Q153.746 774.053 153.746 766.946 Q153.746 759.817 151.918 756.275 Q150.112 752.71 146.478 752.71 M146.478 749.007 Q152.288 749.007 155.343 753.613 Q158.422 758.196 158.422 766.946 Q158.422 775.673 155.343 780.28 Q152.288 784.863 146.478 784.863 Q140.668 784.863 137.589 780.28 Q134.533 775.673 134.533 766.946 Q134.533 758.196 137.589 753.613 Q140.668 749.007 146.478 749.007 Z" fill="#000000" fill-rule="nonzero" fill-opacity="1" /><path clip-path="url(#clip300)" d="M176.64 752.71 Q173.029 752.71 171.2 756.275 Q169.394 759.817 169.394 766.946 Q169.394 774.053 171.2 777.618 Q173.029 781.159 176.64 781.159 Q180.274 781.159 182.079 777.618 Q183.908 774.053 183.908 766.946 Q183.908 759.817 182.079 756.275 Q180.274 752.71 176.64 752.71 M176.64 749.007 Q182.45 749.007 185.505 753.613 Q188.584 758.196 188.584 766.946 Q188.584 775.673 185.505 780.28 Q182.45 784.863 176.64 784.863 Q170.829 784.863 167.751 780.28 Q164.695 775.673 164.695 766.946 Q164.695 758.196 167.751 753.613 Q170.829 749.007 176.64 749.007 Z" fill="#000000" fill-rule="nonzero" fill-opacity="1" /><path clip-path="url(#clip300)" d="M102.844 493.376 Q99.2326 493.376 97.4039 496.941 Q95.5984 500.483 95.5984 507.612 Q95.5984 514.719 97.4039 518.283 Q99.2326 521.825 102.844 521.825 Q106.478 521.825 108.283 518.283 Q110.112 514.719 110.112 507.612 Q110.112 500.483 108.283 496.941 Q106.478 493.376 102.844 493.376 M102.844 489.672 Q108.654 489.672 111.709 494.279 Q114.788 498.862 114.788 507.612 Q114.788 516.339 111.709 520.945 Q108.654 525.529 102.844 525.529 Q97.0335 525.529 93.9549 520.945 Q90.8993 516.339 90.8993 507.612 Q90.8993 498.862 93.9549 494.279 Q97.0335 489.672 102.844 489.672 Z" fill="#000000" fill-rule="nonzero" fill-opacity="1" /><path clip-path="url(#clip300)" d="M123.006 518.978 L127.89 518.978 L127.89 524.857 L123.006 524.857 L123.006 518.978 Z" fill="#000000" fill-rule="nonzero" fill-opacity="1" /><path clip-path="url(#clip300)" d="M148.075 493.376 Q144.464 493.376 142.635 496.941 Q140.83 500.483 140.83 507.612 Q140.83 514.719 142.635 518.283 Q144.464 521.825 148.075 521.825 Q151.709 521.825 153.515 518.283 Q155.343 514.719 155.343 507.612 Q155.343 500.483 153.515 496.941 Q151.709 493.376 148.075 493.376 M148.075 489.672 Q153.885 489.672 156.941 494.279 Q160.019 498.862 160.019 507.612 Q160.019 516.339 156.941 520.945 Q153.885 525.529 148.075 525.529 Q142.265 525.529 139.186 520.945 Q136.131 516.339 136.131 507.612 Q136.131 498.862 139.186 494.279 Q142.265 489.672 148.075 489.672 Z" fill="#000000" fill-rule="nonzero" fill-opacity="1" /><path clip-path="url(#clip300)" d="M172.265 520.922 L188.584 520.922 L188.584 524.857 L166.64 524.857 L166.64 520.922 Q169.302 518.168 173.885 513.538 Q178.491 508.885 179.672 507.543 Q181.917 505.02 182.797 503.284 Q183.7 501.524 183.7 499.834 Q183.7 497.08 181.755 495.344 Q179.834 493.608 176.732 493.608 Q174.533 493.608 172.079 494.372 Q169.649 495.135 166.871 496.686 L166.871 491.964 Q169.695 490.83 172.149 490.251 Q174.603 489.672 176.64 489.672 Q182.01 489.672 185.204 492.358 Q188.399 495.043 188.399 499.534 Q188.399 501.663 187.589 503.584 Q186.802 505.483 184.695 508.075 Q184.116 508.746 181.015 511.964 Q177.913 515.158 172.265 520.922 Z" fill="#000000" fill-rule="nonzero" fill-opacity="1" /><path clip-path="url(#clip300)" d="M100.76 234.042 Q97.1493 234.042 95.3206 237.607 Q93.515 241.148 93.515 248.278 Q93.515 255.384 95.3206 258.949 Q97.1493 262.491 100.76 262.491 Q104.395 262.491 106.2 258.949 Q108.029 255.384 108.029 248.278 Q108.029 241.148 106.2 237.607 Q104.395 234.042 100.76 234.042 M100.76 230.338 Q106.571 230.338 109.626 234.945 Q112.705 239.528 112.705 248.278 Q112.705 257.005 109.626 261.611 Q106.571 266.195 100.76 266.195 Q94.9502 266.195 91.8715 261.611 Q88.816 257.005 88.816 248.278 Q88.816 239.528 91.8715 234.945 Q94.9502 230.338 100.76 230.338 Z" fill="#000000" fill-rule="nonzero" fill-opacity="1" /><path clip-path="url(#clip300)" d="M120.922 259.644 L125.807 259.644 L125.807 265.523 L120.922 265.523 L120.922 259.644 Z" fill="#000000" fill-rule="nonzero" fill-opacity="1" /><path clip-path="url(#clip300)" d="M145.992 234.042 Q142.381 234.042 140.552 237.607 Q138.746 241.148 138.746 248.278 Q138.746 255.384 140.552 258.949 Q142.381 262.491 145.992 262.491 Q149.626 262.491 151.431 258.949 Q153.26 255.384 153.26 248.278 Q153.26 241.148 151.431 237.607 Q149.626 234.042 145.992 234.042 M145.992 230.338 Q151.802 230.338 154.857 234.945 Q157.936 239.528 157.936 248.278 Q157.936 257.005 154.857 261.611 Q151.802 266.195 145.992 266.195 Q140.181 266.195 137.103 261.611 Q134.047 257.005 134.047 248.278 Q134.047 239.528 137.103 234.945 Q140.181 230.338 145.992 230.338 Z" fill="#000000" fill-rule="nonzero" fill-opacity="1" /><path clip-path="url(#clip300)" d="M179.001 235.037 L167.195 253.486 L179.001 253.486 L179.001 235.037 M177.774 230.963 L183.653 230.963 L183.653 253.486 L188.584 253.486 L188.584 257.375 L183.653 257.375 L183.653 265.523 L179.001 265.523 L179.001 257.375 L163.399 257.375 L163.399 252.861 L177.774 230.963 Z" fill="#000000" fill-rule="nonzero" fill-opacity="1" /><circle clip-path="url(#clip302)" cx="284.815" cy="87.9763" r="14.4" fill="#009af9" fill-rule="evenodd" fill-opacity="1" stroke="#000000" stroke-opacity="1" stroke-width="3.2"/>
<circle clip-path="url(#clip302)" cx="294.722" cy="91.1855" r="14.4" fill="#009af9" fill-rule="evenodd" fill-opacity="1" stroke="#000000" stroke-opacity="1" stroke-width="3.2"/>
<circle clip-path="url(#clip302)" cx="312.099" cy="112.191" r="14.4" fill="#009af9" fill-rule="evenodd" fill-opacity="1" stroke="#000000" stroke-opacity="1" stroke-width="3.2"/>
<circle clip-path="url(#clip302)" cx="332.674" cy="161.559" r="14.4" fill="#009af9" fill-rule="evenodd" fill-opacity="1" stroke="#000000" stroke-opacity="1" stroke-width="3.2"/>
<circle clip-path="url(#clip302)" cx="357.619" cy="254.162" r="14.4" fill="#009af9" fill-rule="evenodd" fill-opacity="1" stroke="#000000" stroke-opacity="1" stroke-width="3.2"/>
<circle clip-path="url(#clip302)" cx="385.219" cy="391.998" r="14.4" fill="#009af9" fill-rule="evenodd" fill-opacity="1" stroke="#000000" stroke-opacity="1" stroke-width="3.2"/>
<circle clip-path="url(#clip302)" cx="415.325" cy="573.138" r="14.4" fill="#009af9" fill-rule="evenodd" fill-opacity="1" stroke="#000000" stroke-opacity="1" stroke-width="3.2"/>
<circle clip-path="url(#clip302)" cx="447.179" cy="782.74" r="14.4" fill="#009af9" fill-rule="evenodd" fill-opacity="1" stroke="#000000" stroke-opacity="1" stroke-width="3.2"/>
<circle clip-path="url(#clip302)" cx="480.57" cy="1000.46" r="14.4" fill="#009af9" fill-rule="evenodd" fill-opacity="1" stroke="#000000" stroke-opacity="1" stroke-width="3.2"/>
<circle clip-path="url(#clip302)" cx="515.345" cy="1200.43" r="14.4" fill="#009af9" fill-rule="evenodd" fill-opacity="1" stroke="#000000" stroke-opacity="1" stroke-width="3.2"/>
<circle clip-path="url(#clip302)" cx="551.582" cy="1355.28" r="14.4" fill="#009af9" fill-rule="evenodd" fill-opacity="1" stroke="#000000" stroke-opacity="1" stroke-width="3.2"/>
<circle clip-path="url(#clip302)" cx="589.475" cy="1438.18" r="14.4" fill="#009af9" fill-rule="evenodd" fill-opacity="1" stroke="#000000" stroke-opacity="1" stroke-width="3.2"/>
<circle clip-path="url(#clip302)" cx="629.564" cy="1425.87" r="14.4" fill="#009af9" fill-rule="evenodd" fill-opacity="1" stroke="#000000" stroke-opacity="1" stroke-width="3.2"/>
<circle clip-path="url(#clip302)" cx="672.735" cy="1300.31" r="14.4" fill="#009af9" fill-rule="evenodd" fill-opacity="1" stroke="#000000" stroke-opacity="1" stroke-width="3.2"/>
<circle clip-path="url(#clip302)" cx="717.782" cy="1069.2" r="14.4" fill="#009af9" fill-rule="evenodd" fill-opacity="1" stroke="#000000" stroke-opacity="1" stroke-width="3.2"/>
<circle clip-path="url(#clip302)" cx="760.765" cy="793.672" r="14.4" fill="#009af9" fill-rule="evenodd" fill-opacity="1" stroke="#000000" stroke-opacity="1" stroke-width="3.2"/>
<circle clip-path="url(#clip302)" cx="803.124" cy="517.311" r="14.4" fill="#009af9" fill-rule="evenodd" fill-opacity="1" stroke="#000000" stroke-opacity="1" stroke-width="3.2"/>
<circle clip-path="url(#clip302)" cx="844.931" cy="286.096" r="14.4" fill="#009af9" fill-rule="evenodd" fill-opacity="1" stroke="#000000" stroke-opacity="1" stroke-width="3.2"/>
<circle clip-path="url(#clip302)" cx="887.023" cy="134.069" r="14.4" fill="#009af9" fill-rule="evenodd" fill-opacity="1" stroke="#000000" stroke-opacity="1" stroke-width="3.2"/>
<circle clip-path="url(#clip302)" cx="929.946" cy="88.8537" r="14.4" fill="#009af9" fill-rule="evenodd" fill-opacity="1" stroke="#000000" stroke-opacity="1" stroke-width="3.2"/>
<circle clip-path="url(#clip302)" cx="974.853" cy="168.419" r="14.4" fill="#009af9" fill-rule="evenodd" fill-opacity="1" stroke="#000000" stroke-opacity="1" stroke-width="3.2"/>
<circle clip-path="url(#clip302)" cx="1022.68" cy="378.239" r="14.4" fill="#009af9" fill-rule="evenodd" fill-opacity="1" stroke="#000000" stroke-opacity="1" stroke-width="3.2"/>
<circle clip-path="url(#clip302)" cx="1068.73" cy="660.542" r="14.4" fill="#009af9" fill-rule="evenodd" fill-opacity="1" stroke="#000000" stroke-opacity="1" stroke-width="3.2"/>
<circle clip-path="url(#clip302)" cx="1112.89" cy="952.095" r="14.4" fill="#009af9" fill-rule="evenodd" fill-opacity="1" stroke="#000000" stroke-opacity="1" stroke-width="3.2"/>
<circle clip-path="url(#clip302)" cx="1156.15" cy="1204.8" r="14.4" fill="#009af9" fill-rule="evenodd" fill-opacity="1" stroke="#000000" stroke-opacity="1" stroke-width="3.2"/>
<circle clip-path="url(#clip302)" cx="1199.19" cy="1379.06" r="14.4" fill="#009af9" fill-rule="evenodd" fill-opacity="1" stroke="#000000" stroke-opacity="1" stroke-width="3.2"/>
<circle clip-path="url(#clip302)" cx="1242.74" cy="1445.72" r="14.4" fill="#009af9" fill-rule="evenodd" fill-opacity="1" stroke="#000000" stroke-opacity="1" stroke-width="3.2"/>
<circle clip-path="url(#clip302)" cx="1287.89" cy="1385.84" r="14.4" fill="#009af9" fill-rule="evenodd" fill-opacity="1" stroke="#000000" stroke-opacity="1" stroke-width="3.2"/>
<circle clip-path="url(#clip302)" cx="1335.93" cy="1191.47" r="14.4" fill="#009af9" fill-rule="evenodd" fill-opacity="1" stroke="#000000" stroke-opacity="1" stroke-width="3.2"/>
<circle clip-path="url(#clip302)" cx="1383.01" cy="910.622" r="14.4" fill="#009af9" fill-rule="evenodd" fill-opacity="1" stroke="#000000" stroke-opacity="1" stroke-width="3.2"/>
<circle clip-path="url(#clip302)" cx="1427.59" cy="615.8" r="14.4" fill="#009af9" fill-rule="evenodd" fill-opacity="1" stroke="#000000" stroke-opacity="1" stroke-width="3.2"/>
<circle clip-path="url(#clip302)" cx="1471.24" cy="354.407" r="14.4" fill="#009af9" fill-rule="evenodd" fill-opacity="1" stroke="#000000" stroke-opacity="1" stroke-width="3.2"/>
<circle clip-path="url(#clip302)" cx="1514.47" cy="168.955" r="14.4" fill="#009af9" fill-rule="evenodd" fill-opacity="1" stroke="#000000" stroke-opacity="1" stroke-width="3.2"/>
<circle clip-path="url(#clip302)" cx="1558.1" cy="89.4097" r="14.4" fill="#009af9" fill-rule="evenodd" fill-opacity="1" stroke="#000000" stroke-opacity="1" stroke-width="3.2"/>
<circle clip-path="url(#clip302)" cx="1603.15" cy="135.73" r="14.4" fill="#009af9" fill-rule="evenodd" fill-opacity="1" stroke="#000000" stroke-opacity="1" stroke-width="3.2"/>
<circle clip-path="url(#clip302)" cx="1651.01" cy="317.398" r="14.4" fill="#009af9" fill-rule="evenodd" fill-opacity="1" stroke="#000000" stroke-opacity="1" stroke-width="3.2"/>
<circle clip-path="url(#clip302)" cx="1698.59" cy="594.668" r="14.4" fill="#009af9" fill-rule="evenodd" fill-opacity="1" stroke="#000000" stroke-opacity="1" stroke-width="3.2"/>
<circle clip-path="url(#clip302)" cx="1743.33" cy="890.36" r="14.4" fill="#009af9" fill-rule="evenodd" fill-opacity="1" stroke="#000000" stroke-opacity="1" stroke-width="3.2"/>
<circle clip-path="url(#clip302)" cx="1787.15" cy="1157.57" r="14.4" fill="#009af9" fill-rule="evenodd" fill-opacity="1" stroke="#000000" stroke-opacity="1" stroke-width="3.2"/>
<circle clip-path="url(#clip302)" cx="1830.41" cy="1351.67" r="14.4" fill="#009af9" fill-rule="evenodd" fill-opacity="1" stroke="#000000" stroke-opacity="1" stroke-width="3.2"/>
<circle clip-path="url(#clip302)" cx="1874.02" cy="1442.12" r="14.4" fill="#009af9" fill-rule="evenodd" fill-opacity="1" stroke="#000000" stroke-opacity="1" stroke-width="3.2"/>
<circle clip-path="url(#clip302)" cx="1918.9" cy="1407.92" r="14.4" fill="#009af9" fill-rule="evenodd" fill-opacity="1" stroke="#000000" stroke-opacity="1" stroke-width="3.2"/>
<circle clip-path="url(#clip302)" cx="1966.51" cy="1238.36" r="14.4" fill="#009af9" fill-rule="evenodd" fill-opacity="1" stroke="#000000" stroke-opacity="1" stroke-width="3.2"/>
<circle clip-path="url(#clip302)" cx="2014.44" cy="965.584" r="14.4" fill="#009af9" fill-rule="evenodd" fill-opacity="1" stroke="#000000" stroke-opacity="1" stroke-width="3.2"/>
<circle clip-path="url(#clip302)" cx="2059.31" cy="669.74" r="14.4" fill="#009af9" fill-rule="evenodd" fill-opacity="1" stroke="#000000" stroke-opacity="1" stroke-width="3.2"/>
<circle clip-path="url(#clip302)" cx="2103.26" cy="397.651" r="14.4" fill="#009af9" fill-rule="evenodd" fill-opacity="1" stroke="#000000" stroke-opacity="1" stroke-width="3.2"/>
<circle clip-path="url(#clip302)" cx="2146.52" cy="195.661" r="14.4" fill="#009af9" fill-rule="evenodd" fill-opacity="1" stroke="#000000" stroke-opacity="1" stroke-width="3.2"/>
<circle clip-path="url(#clip302)" cx="2190.09" cy="94.9251" r="14.4" fill="#009af9" fill-rule="evenodd" fill-opacity="1" stroke="#000000" stroke-opacity="1" stroke-width="3.2"/>
<circle clip-path="url(#clip302)" cx="2234.81" cy="117.477" r="14.4" fill="#009af9" fill-rule="evenodd" fill-opacity="1" stroke="#000000" stroke-opacity="1" stroke-width="3.2"/>
<circle clip-path="url(#clip302)" cx="2282.14" cy="275.054" r="14.4" fill="#009af9" fill-rule="evenodd" fill-opacity="1" stroke="#000000" stroke-opacity="1" stroke-width="3.2"/>
<circle clip-path="url(#clip302)" cx="2292.52" cy="325.251" r="14.4" fill="#009af9" fill-rule="evenodd" fill-opacity="1" stroke="#000000" stroke-opacity="1" stroke-width="3.2"/>
<polyline clip-path="url(#clip302)" style="stroke:#e26f46; stroke-linecap:round; stroke-linejoin:round; stroke-width:4; stroke-opacity:1; fill:none" points="284.815,87.9763 294.722,91.1855 312.099,112.191 332.674,161.559 357.619,254.162 385.219,391.998 415.325,573.138 447.179,782.74 480.57,1000.46 515.345,1200.43 551.582,1355.28 589.475,1438.18 629.564,1425.87 672.735,1300.31 717.782,1069.2 760.765,793.674 803.124,517.313 844.931,286.097 887.023,134.07 929.946,88.8531 974.853,168.417 1022.68,378.235 1068.73,660.537 1112.89,952.09 1156.15,1204.79 1199.19,1379.05 1242.74,1445.72 1287.89,1385.85 1335.93,1191.48 1383.01,910.631 1427.59,615.809 1471.24,354.414 1514.47,168.959 1558.1,89.4095 1603.15,135.726 1651.01,317.389 1698.59,594.656 1743.33,890.347 1787.15,1157.56 1830.41,1351.66 1874.02,1442.12 1918.9,1407.92 1966.51,1238.37 2014.44,965.6 2059.31,669.756 2103.26,397.664 2146.52,195.67 2190.09,94.9265 2234.81,117.47 2282.14,275.04 2292.52,325.236 "/>
<path clip-path="url(#clip300)" d="M1836.29 1438.47 L2281.82 1438.47 L2281.82 1282.95 L1836.29 1282.95  Z" fill="#ffffff" fill-rule="evenodd" fill-opacity="1"/>
<polyline clip-path="url(#clip300)" style="stroke:#000000; stroke-linecap:round; stroke-linejoin:round; stroke-width:4; stroke-opacity:1; fill:none" points="1836.29,1438.47 2281.82,1438.47 2281.82,1282.95 1836.29,1282.95 1836.29,1438.47 "/>
<circle clip-path="url(#clip300)" cx="1930.88" cy="1334.79" r="20.48" fill="#009af9" fill-rule="evenodd" fill-opacity="1" stroke="#000000" stroke-opacity="1" stroke-width="4.55111"/>
<path clip-path="url(#clip300)" d="M2025.46 1317.51 L2031.76 1317.51 L2047.08 1346.43 L2047.08 1317.51 L2051.62 1317.51 L2051.62 1352.07 L2045.32 1352.07 L2030 1323.16 L2030 1352.07 L2025.46 1352.07 L2025.46 1317.51 Z" fill="#000000" fill-rule="nonzero" fill-opacity="1" /><path clip-path="url(#clip300)" d="M2060.3 1341.84 L2060.3 1326.15 L2064.56 1326.15 L2064.56 1341.68 Q2064.56 1345.36 2066 1347.21 Q2067.43 1349.04 2070.3 1349.04 Q2073.75 1349.04 2075.74 1346.84 Q2077.75 1344.64 2077.75 1340.85 L2077.75 1326.15 L2082.01 1326.15 L2082.01 1352.07 L2077.75 1352.07 L2077.75 1348.09 Q2076.2 1350.45 2074.14 1351.61 Q2072.11 1352.75 2069.4 1352.75 Q2064.93 1352.75 2062.62 1349.97 Q2060.3 1347.19 2060.3 1341.84 M2071.02 1325.52 L2071.02 1325.52 Z" fill="#000000" fill-rule="nonzero" fill-opacity="1" /><path clip-path="url(#clip300)" d="M2110.97 1331.13 Q2112.57 1328.26 2114.79 1326.89 Q2117.01 1325.52 2120.02 1325.52 Q2124.07 1325.52 2126.27 1328.37 Q2128.47 1331.19 2128.47 1336.43 L2128.47 1352.07 L2124.19 1352.07 L2124.19 1336.57 Q2124.19 1332.84 2122.87 1331.03 Q2121.55 1329.23 2118.84 1329.23 Q2115.53 1329.23 2113.61 1331.43 Q2111.69 1333.63 2111.69 1337.42 L2111.69 1352.07 L2107.41 1352.07 L2107.41 1336.57 Q2107.41 1332.82 2106.09 1331.03 Q2104.77 1329.23 2102.01 1329.23 Q2098.75 1329.23 2096.83 1331.45 Q2094.91 1333.65 2094.91 1337.42 L2094.91 1352.07 L2090.63 1352.07 L2090.63 1326.15 L2094.91 1326.15 L2094.91 1330.18 Q2096.37 1327.79 2098.4 1326.66 Q2100.44 1325.52 2103.24 1325.52 Q2106.06 1325.52 2108.03 1326.96 Q2110.02 1328.39 2110.97 1331.13 Z" fill="#000000" fill-rule="nonzero" fill-opacity="1" /><path clip-path="url(#clip300)" d="M2159.14 1338.05 L2159.14 1340.13 L2139.56 1340.13 Q2139.84 1344.53 2142.2 1346.84 Q2144.58 1349.13 2148.82 1349.13 Q2151.27 1349.13 2153.56 1348.53 Q2155.88 1347.93 2158.15 1346.73 L2158.15 1350.75 Q2155.86 1351.73 2153.45 1352.24 Q2151.04 1352.75 2148.56 1352.75 Q2142.36 1352.75 2138.73 1349.13 Q2135.12 1345.52 2135.12 1339.37 Q2135.12 1333 2138.54 1329.27 Q2141.99 1325.52 2147.82 1325.52 Q2153.06 1325.52 2156.09 1328.9 Q2159.14 1332.26 2159.14 1338.05 M2154.88 1336.8 Q2154.84 1333.3 2152.92 1331.22 Q2151.02 1329.13 2147.87 1329.13 Q2144.31 1329.13 2142.15 1331.15 Q2140.02 1333.16 2139.7 1336.82 L2154.88 1336.8 Z" fill="#000000" fill-rule="nonzero" fill-opacity="1" /><path clip-path="url(#clip300)" d="M2181.16 1330.13 Q2180.44 1329.71 2179.58 1329.53 Q2178.75 1329.32 2177.73 1329.32 Q2174.12 1329.32 2172.18 1331.68 Q2170.25 1334.02 2170.25 1338.42 L2170.25 1352.07 L2165.97 1352.07 L2165.97 1326.15 L2170.25 1326.15 L2170.25 1330.18 Q2171.6 1327.82 2173.75 1326.68 Q2175.9 1325.52 2178.98 1325.52 Q2179.42 1325.52 2179.95 1325.59 Q2180.49 1325.64 2181.13 1325.76 L2181.16 1330.13 Z" fill="#000000" fill-rule="nonzero" fill-opacity="1" /><path clip-path="url(#clip300)" d="M2185.62 1326.15 L2189.88 1326.15 L2189.88 1352.07 L2185.62 1352.07 L2185.62 1326.15 M2185.62 1316.06 L2189.88 1316.06 L2189.88 1321.45 L2185.62 1321.45 L2185.62 1316.06 Z" fill="#000000" fill-rule="nonzero" fill-opacity="1" /><path clip-path="url(#clip300)" d="M2217.45 1327.14 L2217.45 1331.13 Q2215.65 1330.13 2213.82 1329.64 Q2212.01 1329.13 2210.16 1329.13 Q2206.02 1329.13 2203.73 1331.77 Q2201.43 1334.39 2201.43 1339.13 Q2201.43 1343.88 2203.73 1346.52 Q2206.02 1349.13 2210.16 1349.13 Q2212.01 1349.13 2213.82 1348.65 Q2215.65 1348.14 2217.45 1347.14 L2217.45 1351.08 Q2215.67 1351.91 2213.75 1352.33 Q2211.85 1352.75 2209.7 1352.75 Q2203.84 1352.75 2200.39 1349.07 Q2196.94 1345.38 2196.94 1339.13 Q2196.94 1332.79 2200.42 1329.16 Q2203.91 1325.52 2209.98 1325.52 Q2211.94 1325.52 2213.82 1325.94 Q2215.69 1326.33 2217.45 1327.14 Z" fill="#000000" fill-rule="nonzero" fill-opacity="1" /><path clip-path="url(#clip300)" d="M2236.64 1339.04 Q2231.48 1339.04 2229.49 1340.22 Q2227.5 1341.4 2227.5 1344.25 Q2227.5 1346.52 2228.98 1347.86 Q2230.49 1349.18 2233.05 1349.18 Q2236.6 1349.18 2238.73 1346.68 Q2240.88 1344.16 2240.88 1339.99 L2240.88 1339.04 L2236.64 1339.04 M2245.14 1337.28 L2245.14 1352.07 L2240.88 1352.07 L2240.88 1348.14 Q2239.42 1350.5 2237.24 1351.63 Q2235.07 1352.75 2231.92 1352.75 Q2227.94 1352.75 2225.58 1350.52 Q2223.24 1348.28 2223.24 1344.53 Q2223.24 1340.15 2226.16 1337.93 Q2229.1 1335.71 2234.91 1335.71 L2240.88 1335.71 L2240.88 1335.29 Q2240.88 1332.35 2238.93 1330.76 Q2237.01 1329.13 2233.52 1329.13 Q2231.3 1329.13 2229.19 1329.67 Q2227.08 1330.2 2225.14 1331.26 L2225.14 1327.33 Q2227.48 1326.43 2229.68 1325.99 Q2231.87 1325.52 2233.96 1325.52 Q2239.58 1325.52 2242.36 1328.44 Q2245.14 1331.36 2245.14 1337.28 Z" fill="#000000" fill-rule="nonzero" fill-opacity="1" /><path clip-path="url(#clip300)" d="M2253.91 1316.06 L2258.17 1316.06 L2258.17 1352.07 L2253.91 1352.07 L2253.91 1316.06 Z" fill="#000000" fill-rule="nonzero" fill-opacity="1" /><polyline clip-path="url(#clip300)" style="stroke:#e26f46; stroke-linecap:round; stroke-linejoin:round; stroke-width:4; stroke-opacity:1; fill:none" points="1859.94,1386.63 2001.82,1386.63 "/>
<path clip-path="url(#clip300)" d="M2041.3 1373.96 L2034.95 1391.16 L2047.66 1391.16 L2041.3 1373.96 M2038.66 1369.35 L2043.96 1369.35 L2057.13 1403.91 L2052.27 1403.91 L2049.12 1395.05 L2033.54 1395.05 L2030.39 1403.91 L2025.46 1403.91 L2038.66 1369.35 Z" fill="#000000" fill-rule="nonzero" fill-opacity="1" /><path clip-path="url(#clip300)" d="M2083.54 1388.27 L2083.54 1403.91 L2079.28 1403.91 L2079.28 1388.41 Q2079.28 1384.72 2077.85 1382.9 Q2076.41 1381.07 2073.54 1381.07 Q2070.09 1381.07 2068.1 1383.27 Q2066.11 1385.47 2066.11 1389.26 L2066.11 1403.91 L2061.83 1403.91 L2061.83 1377.99 L2066.11 1377.99 L2066.11 1382.02 Q2067.64 1379.68 2069.7 1378.52 Q2071.78 1377.36 2074.49 1377.36 Q2078.96 1377.36 2081.25 1380.14 Q2083.54 1382.9 2083.54 1388.27 Z" fill="#000000" fill-rule="nonzero" fill-opacity="1" /><path clip-path="url(#clip300)" d="M2103.82 1390.88 Q2098.66 1390.88 2096.67 1392.06 Q2094.68 1393.24 2094.68 1396.09 Q2094.68 1398.36 2096.16 1399.7 Q2097.66 1401.02 2100.23 1401.02 Q2103.77 1401.02 2105.9 1398.52 Q2108.06 1396 2108.06 1391.83 L2108.06 1390.88 L2103.82 1390.88 M2112.31 1389.12 L2112.31 1403.91 L2108.06 1403.91 L2108.06 1399.98 Q2106.6 1402.34 2104.42 1403.47 Q2102.25 1404.59 2099.1 1404.59 Q2095.12 1404.59 2092.75 1402.36 Q2090.42 1400.12 2090.42 1396.37 Q2090.42 1391.99 2093.33 1389.77 Q2096.27 1387.55 2102.08 1387.55 L2108.06 1387.55 L2108.06 1387.13 Q2108.06 1384.19 2106.11 1382.6 Q2104.19 1380.97 2100.69 1380.97 Q2098.47 1380.97 2096.37 1381.51 Q2094.26 1382.04 2092.31 1383.1 L2092.31 1379.17 Q2094.65 1378.27 2096.85 1377.83 Q2099.05 1377.36 2101.13 1377.36 Q2106.76 1377.36 2109.54 1380.28 Q2112.31 1383.2 2112.31 1389.12 Z" fill="#000000" fill-rule="nonzero" fill-opacity="1" /><path clip-path="url(#clip300)" d="M2121.09 1367.9 L2125.35 1367.9 L2125.35 1403.91 L2121.09 1403.91 L2121.09 1367.9 Z" fill="#000000" fill-rule="nonzero" fill-opacity="1" /><path clip-path="url(#clip300)" d="M2145.05 1406.32 Q2143.24 1410.95 2141.53 1412.36 Q2139.81 1413.78 2136.94 1413.78 L2133.54 1413.78 L2133.54 1410.21 L2136.04 1410.21 Q2137.8 1410.21 2138.77 1409.38 Q2139.75 1408.54 2140.93 1405.44 L2141.69 1403.5 L2131.2 1377.99 L2135.72 1377.99 L2143.82 1398.27 L2151.92 1377.99 L2156.43 1377.99 L2145.05 1406.32 Z" fill="#000000" fill-rule="nonzero" fill-opacity="1" /><path clip-path="url(#clip300)" d="M2166.53 1370.63 L2166.53 1377.99 L2175.3 1377.99 L2175.3 1381.3 L2166.53 1381.3 L2166.53 1395.37 Q2166.53 1398.54 2167.38 1399.45 Q2168.26 1400.35 2170.93 1400.35 L2175.3 1400.35 L2175.3 1403.91 L2170.93 1403.91 Q2166 1403.91 2164.12 1402.09 Q2162.25 1400.23 2162.25 1395.37 L2162.25 1381.3 L2159.12 1381.3 L2159.12 1377.99 L2162.25 1377.99 L2162.25 1370.63 L2166.53 1370.63 Z" fill="#000000" fill-rule="nonzero" fill-opacity="1" /><path clip-path="url(#clip300)" d="M2180.9 1377.99 L2185.16 1377.99 L2185.16 1403.91 L2180.9 1403.91 L2180.9 1377.99 M2180.9 1367.9 L2185.16 1367.9 L2185.16 1373.29 L2180.9 1373.29 L2180.9 1367.9 Z" fill="#000000" fill-rule="nonzero" fill-opacity="1" /><path clip-path="url(#clip300)" d="M2212.73 1378.98 L2212.73 1382.97 Q2210.93 1381.97 2209.1 1381.48 Q2207.29 1380.97 2205.44 1380.97 Q2201.3 1380.97 2199 1383.61 Q2196.71 1386.23 2196.71 1390.97 Q2196.71 1395.72 2199 1398.36 Q2201.3 1400.97 2205.44 1400.97 Q2207.29 1400.97 2209.1 1400.49 Q2210.93 1399.98 2212.73 1398.98 L2212.73 1402.92 Q2210.95 1403.75 2209.03 1404.17 Q2207.13 1404.59 2204.98 1404.59 Q2199.12 1404.59 2195.67 1400.91 Q2192.22 1397.22 2192.22 1390.97 Q2192.22 1384.63 2195.69 1381 Q2199.19 1377.36 2205.25 1377.36 Q2207.22 1377.36 2209.1 1377.78 Q2210.97 1378.17 2212.73 1378.98 Z" fill="#000000" fill-rule="nonzero" fill-opacity="1" /></svg>
