<?xml version="1.0" encoding="utf-8"?>
<svg xmlns="http://www.w3.org/2000/svg" xmlns:xlink="http://www.w3.org/1999/xlink" width="600" height="400" viewBox="0 0 2400 1600">
<defs>
  <clipPath id="clip390">
    <rect x="0" y="0" width="2400" height="1600"/>
  </clipPath>
</defs>
<path clip-path="url(#clip390)" d="
M0 1600 L2400 1600 L2400 0 L0 0  Z
  " fill="#ffffff" fill-rule="evenodd" fill-opacity="1"/>
<defs>
  <clipPath id="clip391">
    <rect x="480" y="0" width="1681" height="1600"/>
  </clipPath>
</defs>
<path clip-path="url(#clip390)" d="
M224.584 1486.45 L2352.76 1486.45 L2352.76 47.2441 L224.584 47.2441  Z
  " fill="#ffffff" fill-rule="evenodd" fill-opacity="1"/>
<defs>
  <clipPath id="clip392">
    <rect x="224" y="47" width="2129" height="1440"/>
  </clipPath>
</defs>
<polyline clip-path="url(#clip392)" style="stroke:#000000; stroke-linecap:butt; stroke-linejoin:round; stroke-width:2; stroke-opacity:0.1; fill:none" points="
  284.815,1486.45 284.815,47.2441 
  "/>
<polyline clip-path="url(#clip392)" style="stroke:#000000; stroke-linecap:butt; stroke-linejoin:round; stroke-width:2; stroke-opacity:0.1; fill:none" points="
  603.499,1486.45 603.499,47.2441 
  "/>
<polyline clip-path="url(#clip392)" style="stroke:#000000; stroke-linecap:butt; stroke-linejoin:round; stroke-width:2; stroke-opacity:0.1; fill:none" points="
  922.183,1486.45 922.183,47.2441 
  "/>
<polyline clip-path="url(#clip392)" style="stroke:#000000; stroke-linecap:butt; stroke-linejoin:round; stroke-width:2; stroke-opacity:0.1; fill:none" points="
  1240.87,1486.45 1240.87,47.2441 
  "/>
<polyline clip-path="url(#clip392)" style="stroke:#000000; stroke-linecap:butt; stroke-linejoin:round; stroke-width:2; stroke-opacity:0.1; fill:none" points="
  1559.55,1486.45 1559.55,47.2441 
  "/>
<polyline clip-path="url(#clip392)" style="stroke:#000000; stroke-linecap:butt; stroke-linejoin:round; stroke-width:2; stroke-opacity:0.1; fill:none" points="
  1878.24,1486.45 1878.24,47.2441 
  "/>
<polyline clip-path="url(#clip392)" style="stroke:#000000; stroke-linecap:butt; stroke-linejoin:round; stroke-width:2; stroke-opacity:0.1; fill:none" points="
  2196.92,1486.45 2196.92,47.2441 
  "/>
<polyline clip-path="url(#clip390)" style="stroke:#000000; stroke-linecap:butt; stroke-linejoin:round; stroke-width:4; stroke-opacity:1; fill:none" points="
  224.584,1486.45 2352.76,1486.45 
  "/>
<polyline clip-path="url(#clip390)" style="stroke:#000000; stroke-linecap:butt; stroke-linejoin:round; stroke-width:4; stroke-opacity:1; fill:none" points="
  284.815,1486.45 284.815,1469.18 
  "/>
<polyline clip-path="url(#clip390)" style="stroke:#000000; stroke-linecap:butt; stroke-linejoin:round; stroke-width:4; stroke-opacity:1; fill:none" points="
  603.499,1486.45 603.499,1469.18 
  "/>
<polyline clip-path="url(#clip390)" style="stroke:#000000; stroke-linecap:butt; stroke-linejoin:round; stroke-width:4; stroke-opacity:1; fill:none" points="
  922.183,1486.45 922.183,1469.18 
  "/>
<polyline clip-path="url(#clip390)" style="stroke:#000000; stroke-linecap:butt; stroke-linejoin:round; stroke-width:4; stroke-opacity:1; fill:none" points="
  1240.87,1486.45 1240.87,1469.18 
  "/>
<polyline clip-path="url(#clip390)" style="stroke:#000000; stroke-linecap:butt; stroke-linejoin:round; stroke-width:4; stroke-opacity:1; fill:none" points="
  1559.55,1486.45 1559.55,1469.18 
  "/>
<polyline clip-path="url(#clip390)" style="stroke:#000000; stroke-linecap:butt; stroke-linejoin:round; stroke-width:4; stroke-opacity:1; fill:none" points="
  1878.24,1486.45 1878.24,1469.18 
  "/>
<polyline clip-path="url(#clip390)" style="stroke:#000000; stroke-linecap:butt; stroke-linejoin:round; stroke-width:4; stroke-opacity:1; fill:none" points="
  2196.92,1486.45 2196.92,1469.18 
  "/>
<path clip-path="url(#clip390)" d="M284.815 1515.64 Q281.204 1515.64 279.375 1519.2 Q277.57 1522.75 277.57 1529.87 Q277.57 1536.98 279.375 1540.55 Q281.204 1544.09 284.815 1544.09 Q288.45 1544.09 290.255 1540.55 Q292.084 1536.98 292.084 1529.87 Q292.084 1522.75 290.255 1519.2 Q288.45 1515.64 284.815 1515.64 M284.815 1511.93 Q290.625 1511.93 293.681 1516.54 Q296.76 1521.12 296.76 1529.87 Q296.76 1538.6 293.681 1543.21 Q290.625 1547.79 284.815 1547.79 Q279.005 1547.79 275.926 1543.21 Q272.871 1538.6 272.871 1529.87 Q272.871 1521.12 275.926 1516.54 Q279.005 1511.93 284.815 1511.93 Z" fill="#000000" fill-rule="evenodd" fill-opacity="1" /><path clip-path="url(#clip390)" d="M593.881 1543.18 L601.52 1543.18 L601.52 1516.82 L593.21 1518.49 L593.21 1514.23 L601.474 1512.56 L606.15 1512.56 L606.15 1543.18 L613.789 1543.18 L613.789 1547.12 L593.881 1547.12 L593.881 1543.18 Z" fill="#000000" fill-rule="evenodd" fill-opacity="1" /><path clip-path="url(#clip390)" d="M916.836 1543.18 L933.155 1543.18 L933.155 1547.12 L911.211 1547.12 L911.211 1543.18 Q913.873 1540.43 918.456 1535.8 Q923.063 1531.15 924.243 1529.81 Q926.489 1527.28 927.368 1525.55 Q928.271 1523.79 928.271 1522.1 Q928.271 1519.34 926.327 1517.61 Q924.406 1515.87 921.304 1515.87 Q919.105 1515.87 916.651 1516.63 Q914.22 1517.4 911.443 1518.95 L911.443 1514.23 Q914.267 1513.09 916.72 1512.51 Q919.174 1511.93 921.211 1511.93 Q926.581 1511.93 929.776 1514.62 Q932.97 1517.31 932.97 1521.8 Q932.97 1523.93 932.16 1525.85 Q931.373 1527.74 929.267 1530.34 Q928.688 1531.01 925.586 1534.23 Q922.484 1537.42 916.836 1543.18 Z" fill="#000000" fill-rule="evenodd" fill-opacity="1" /><path clip-path="url(#clip390)" d="M1245.12 1528.49 Q1248.47 1529.2 1250.35 1531.47 Q1252.24 1533.74 1252.24 1537.07 Q1252.24 1542.19 1248.73 1544.99 Q1245.21 1547.79 1238.73 1547.79 Q1236.55 1547.79 1234.24 1547.35 Q1231.94 1546.93 1229.49 1546.08 L1229.49 1541.56 Q1231.43 1542.7 1233.75 1543.28 Q1236.06 1543.86 1238.59 1543.86 Q1242.99 1543.86 1245.28 1542.12 Q1247.59 1540.38 1247.59 1537.07 Q1247.59 1534.02 1245.44 1532.31 Q1243.31 1530.57 1239.49 1530.57 L1235.46 1530.57 L1235.46 1526.73 L1239.68 1526.73 Q1243.12 1526.73 1244.95 1525.36 Q1246.78 1523.97 1246.78 1521.38 Q1246.78 1518.72 1244.88 1517.31 Q1243.01 1515.87 1239.49 1515.87 Q1237.57 1515.87 1235.37 1516.29 Q1233.17 1516.7 1230.53 1517.58 L1230.53 1513.42 Q1233.19 1512.68 1235.51 1512.31 Q1237.85 1511.93 1239.91 1511.93 Q1245.23 1511.93 1248.33 1514.37 Q1251.43 1516.77 1251.43 1520.89 Q1251.43 1523.76 1249.79 1525.75 Q1248.15 1527.72 1245.12 1528.49 Z" fill="#000000" fill-rule="evenodd" fill-opacity="1" /><path clip-path="url(#clip390)" d="M1562.56 1516.63 L1550.76 1535.08 L1562.56 1535.08 L1562.56 1516.63 M1561.33 1512.56 L1567.21 1512.56 L1567.21 1535.08 L1572.14 1535.08 L1572.14 1538.97 L1567.21 1538.97 L1567.21 1547.12 L1562.56 1547.12 L1562.56 1538.97 L1546.96 1538.97 L1546.96 1534.46 L1561.33 1512.56 Z" fill="#000000" fill-rule="evenodd" fill-opacity="1" /><path clip-path="url(#clip390)" d="M1868.51 1512.56 L1886.87 1512.56 L1886.87 1516.5 L1872.8 1516.5 L1872.8 1524.97 Q1873.81 1524.62 1874.83 1524.46 Q1875.85 1524.27 1876.87 1524.27 Q1882.66 1524.27 1886.04 1527.44 Q1889.42 1530.62 1889.42 1536.03 Q1889.42 1541.61 1885.94 1544.71 Q1882.47 1547.79 1876.15 1547.79 Q1873.98 1547.79 1871.71 1547.42 Q1869.46 1547.05 1867.05 1546.31 L1867.05 1541.61 Q1869.14 1542.74 1871.36 1543.3 Q1873.58 1543.86 1876.06 1543.86 Q1880.06 1543.86 1882.4 1541.75 Q1884.74 1539.64 1884.74 1536.03 Q1884.74 1532.42 1882.4 1530.31 Q1880.06 1528.21 1876.06 1528.21 Q1874.18 1528.21 1872.31 1528.62 Q1870.46 1529.04 1868.51 1529.92 L1868.51 1512.56 Z" fill="#000000" fill-rule="evenodd" fill-opacity="1" /><path clip-path="url(#clip390)" d="M2197.32 1527.98 Q2194.18 1527.98 2192.32 1530.13 Q2190.5 1532.28 2190.5 1536.03 Q2190.5 1539.76 2192.32 1541.93 Q2194.18 1544.09 2197.32 1544.09 Q2200.47 1544.09 2202.3 1541.93 Q2204.15 1539.76 2204.15 1536.03 Q2204.15 1532.28 2202.3 1530.13 Q2200.47 1527.98 2197.32 1527.98 M2206.61 1513.32 L2206.61 1517.58 Q2204.85 1516.75 2203.04 1516.31 Q2201.26 1515.87 2199.5 1515.87 Q2194.87 1515.87 2192.42 1519 Q2189.99 1522.12 2189.64 1528.44 Q2191.01 1526.43 2193.07 1525.36 Q2195.13 1524.27 2197.6 1524.27 Q2202.81 1524.27 2205.82 1527.44 Q2208.85 1530.59 2208.85 1536.03 Q2208.85 1541.36 2205.7 1544.57 Q2202.56 1547.79 2197.32 1547.79 Q2191.33 1547.79 2188.16 1543.21 Q2184.99 1538.6 2184.99 1529.87 Q2184.99 1521.68 2188.88 1516.82 Q2192.76 1511.93 2199.32 1511.93 Q2201.07 1511.93 2202.86 1512.28 Q2204.66 1512.63 2206.61 1513.32 Z" fill="#000000" fill-rule="evenodd" fill-opacity="1" /><polyline clip-path="url(#clip392)" style="stroke:#000000; stroke-linecap:butt; stroke-linejoin:round; stroke-width:2; stroke-opacity:0.1; fill:none" points="
  224.584,1285.58 2352.76,1285.58 
  "/>
<polyline clip-path="url(#clip392)" style="stroke:#000000; stroke-linecap:butt; stroke-linejoin:round; stroke-width:2; stroke-opacity:0.1; fill:none" points="
  224.584,1026.25 2352.76,1026.25 
  "/>
<polyline clip-path="url(#clip392)" style="stroke:#000000; stroke-linecap:butt; stroke-linejoin:round; stroke-width:2; stroke-opacity:0.1; fill:none" points="
  224.584,766.912 2352.76,766.912 
  "/>
<polyline clip-path="url(#clip392)" style="stroke:#000000; stroke-linecap:butt; stroke-linejoin:round; stroke-width:2; stroke-opacity:0.1; fill:none" points="
  224.584,507.577 2352.76,507.577 
  "/>
<polyline clip-path="url(#clip392)" style="stroke:#000000; stroke-linecap:butt; stroke-linejoin:round; stroke-width:2; stroke-opacity:0.1; fill:none" points="
  224.584,248.243 2352.76,248.243 
  "/>
<polyline clip-path="url(#clip390)" style="stroke:#000000; stroke-linecap:butt; stroke-linejoin:round; stroke-width:4; stroke-opacity:1; fill:none" points="
  224.584,1486.45 224.584,47.2441 
  "/>
<polyline clip-path="url(#clip390)" style="stroke:#000000; stroke-linecap:butt; stroke-linejoin:round; stroke-width:4; stroke-opacity:1; fill:none" points="
  224.584,1285.58 250.122,1285.58 
  "/>
<polyline clip-path="url(#clip390)" style="stroke:#000000; stroke-linecap:butt; stroke-linejoin:round; stroke-width:4; stroke-opacity:1; fill:none" points="
  224.584,1026.25 250.122,1026.25 
  "/>
<polyline clip-path="url(#clip390)" style="stroke:#000000; stroke-linecap:butt; stroke-linejoin:round; stroke-width:4; stroke-opacity:1; fill:none" points="
  224.584,766.912 250.122,766.912 
  "/>
<polyline clip-path="url(#clip390)" style="stroke:#000000; stroke-linecap:butt; stroke-linejoin:round; stroke-width:4; stroke-opacity:1; fill:none" points="
  224.584,507.577 250.122,507.577 
  "/>
<polyline clip-path="url(#clip390)" style="stroke:#000000; stroke-linecap:butt; stroke-linejoin:round; stroke-width:4; stroke-opacity:1; fill:none" points="
  224.584,248.243 250.122,248.243 
  "/>
<path clip-path="url(#clip390)" d="M50.9921 1286.03 L80.6679 1286.03 L80.6679 1289.97 L50.9921 1289.97 L50.9921 1286.03 Z" fill="#000000" fill-rule="evenodd" fill-opacity="1" /><path clip-path="url(#clip390)" d="M100.76 1271.38 Q97.1493 1271.38 95.3206 1274.94 Q93.515 1278.49 93.515 1285.61 Q93.515 1292.72 95.3206 1296.29 Q97.1493 1299.83 100.76 1299.83 Q104.395 1299.83 106.2 1296.29 Q108.029 1292.72 108.029 1285.61 Q108.029 1278.49 106.2 1274.94 Q104.395 1271.38 100.76 1271.38 M100.76 1267.68 Q106.571 1267.68 109.626 1272.28 Q112.705 1276.86 112.705 1285.61 Q112.705 1294.34 109.626 1298.95 Q106.571 1303.53 100.76 1303.53 Q94.9502 1303.53 91.8715 1298.95 Q88.816 1294.34 88.816 1285.61 Q88.816 1276.86 91.8715 1272.28 Q94.9502 1267.68 100.76 1267.68 Z" fill="#000000" fill-rule="evenodd" fill-opacity="1" /><path clip-path="url(#clip390)" d="M120.922 1296.98 L125.807 1296.98 L125.807 1302.86 L120.922 1302.86 L120.922 1296.98 Z" fill="#000000" fill-rule="evenodd" fill-opacity="1" /><path clip-path="url(#clip390)" d="M145.992 1271.38 Q142.381 1271.38 140.552 1274.94 Q138.746 1278.49 138.746 1285.61 Q138.746 1292.72 140.552 1296.29 Q142.381 1299.83 145.992 1299.83 Q149.626 1299.83 151.431 1296.29 Q153.26 1292.72 153.26 1285.61 Q153.26 1278.49 151.431 1274.94 Q149.626 1271.38 145.992 1271.38 M145.992 1267.68 Q151.802 1267.68 154.857 1272.28 Q157.936 1276.86 157.936 1285.61 Q157.936 1294.34 154.857 1298.95 Q151.802 1303.53 145.992 1303.53 Q140.181 1303.53 137.103 1298.95 Q134.047 1294.34 134.047 1285.61 Q134.047 1276.86 137.103 1272.28 Q140.181 1267.68 145.992 1267.68 Z" fill="#000000" fill-rule="evenodd" fill-opacity="1" /><path clip-path="url(#clip390)" d="M179.001 1272.37 L167.195 1290.82 L179.001 1290.82 L179.001 1272.37 M177.774 1268.3 L183.653 1268.3 L183.653 1290.82 L188.584 1290.82 L188.584 1294.71 L183.653 1294.71 L183.653 1302.86 L179.001 1302.86 L179.001 1294.71 L163.399 1294.71 L163.399 1290.2 L177.774 1268.3 Z" fill="#000000" fill-rule="evenodd" fill-opacity="1" /><path clip-path="url(#clip390)" d="M53.0754 1026.7 L82.7512 1026.7 L82.7512 1030.63 L53.0754 1030.63 L53.0754 1026.7 Z" fill="#000000" fill-rule="evenodd" fill-opacity="1" /><path clip-path="url(#clip390)" d="M102.844 1012.04 Q99.2326 1012.04 97.4039 1015.61 Q95.5984 1019.15 95.5984 1026.28 Q95.5984 1033.39 97.4039 1036.95 Q99.2326 1040.49 102.844 1040.49 Q106.478 1040.49 108.283 1036.95 Q110.112 1033.39 110.112 1026.28 Q110.112 1019.15 108.283 1015.61 Q106.478 1012.04 102.844 1012.04 M102.844 1008.34 Q108.654 1008.34 111.709 1012.95 Q114.788 1017.53 114.788 1026.28 Q114.788 1035.01 111.709 1039.61 Q108.654 1044.2 102.844 1044.2 Q97.0335 1044.2 93.9549 1039.61 Q90.8993 1035.01 90.8993 1026.28 Q90.8993 1017.53 93.9549 1012.95 Q97.0335 1008.34 102.844 1008.34 Z" fill="#000000" fill-rule="evenodd" fill-opacity="1" /><path clip-path="url(#clip390)" d="M123.006 1037.65 L127.89 1037.65 L127.89 1043.53 L123.006 1043.53 L123.006 1037.65 Z" fill="#000000" fill-rule="evenodd" fill-opacity="1" /><path clip-path="url(#clip390)" d="M148.075 1012.04 Q144.464 1012.04 142.635 1015.61 Q140.83 1019.15 140.83 1026.28 Q140.83 1033.39 142.635 1036.95 Q144.464 1040.49 148.075 1040.49 Q151.709 1040.49 153.515 1036.95 Q155.343 1033.39 155.343 1026.28 Q155.343 1019.15 153.515 1015.61 Q151.709 1012.04 148.075 1012.04 M148.075 1008.34 Q153.885 1008.34 156.941 1012.95 Q160.019 1017.53 160.019 1026.28 Q160.019 1035.01 156.941 1039.61 Q153.885 1044.2 148.075 1044.2 Q142.265 1044.2 139.186 1039.61 Q136.131 1035.01 136.131 1026.28 Q136.131 1017.53 139.186 1012.95 Q142.265 1008.34 148.075 1008.34 Z" fill="#000000" fill-rule="evenodd" fill-opacity="1" /><path clip-path="url(#clip390)" d="M172.265 1039.59 L188.584 1039.59 L188.584 1043.53 L166.64 1043.53 L166.64 1039.59 Q169.302 1036.84 173.885 1032.21 Q178.491 1027.55 179.672 1026.21 Q181.917 1023.69 182.797 1021.95 Q183.7 1020.19 183.7 1018.5 Q183.7 1015.75 181.755 1014.01 Q179.834 1012.28 176.732 1012.28 Q174.533 1012.28 172.079 1013.04 Q169.649 1013.8 166.871 1015.35 L166.871 1010.63 Q169.695 1009.5 172.149 1008.92 Q174.603 1008.34 176.64 1008.34 Q182.01 1008.34 185.204 1011.03 Q188.399 1013.71 188.399 1018.2 Q188.399 1020.33 187.589 1022.25 Q186.802 1024.15 184.695 1026.74 Q184.116 1027.41 181.015 1030.63 Q177.913 1033.83 172.265 1039.59 Z" fill="#000000" fill-rule="evenodd" fill-opacity="1" /><path clip-path="url(#clip390)" d="M101.246 752.71 Q97.6354 752.71 95.8067 756.275 Q94.0012 759.817 94.0012 766.946 Q94.0012 774.053 95.8067 777.618 Q97.6354 781.159 101.246 781.159 Q104.881 781.159 106.686 777.618 Q108.515 774.053 108.515 766.946 Q108.515 759.817 106.686 756.275 Q104.881 752.71 101.246 752.71 M101.246 749.007 Q107.057 749.007 110.112 753.613 Q113.191 758.196 113.191 766.946 Q113.191 775.673 110.112 780.28 Q107.057 784.863 101.246 784.863 Q95.4363 784.863 92.3576 780.28 Q89.3021 775.673 89.3021 766.946 Q89.3021 758.196 92.3576 753.613 Q95.4363 749.007 101.246 749.007 Z" fill="#000000" fill-rule="evenodd" fill-opacity="1" /><path clip-path="url(#clip390)" d="M121.408 778.312 L126.293 778.312 L126.293 784.192 L121.408 784.192 L121.408 778.312 Z" fill="#000000" fill-rule="evenodd" fill-opacity="1" /><path clip-path="url(#clip390)" d="M146.478 752.71 Q142.867 752.71 141.038 756.275 Q139.232 759.817 139.232 766.946 Q139.232 774.053 141.038 777.618 Q142.867 781.159 146.478 781.159 Q150.112 781.159 151.918 777.618 Q153.746 774.053 153.746 766.946 Q153.746 759.817 151.918 756.275 Q150.112 752.71 146.478 752.71 M146.478 749.007 Q152.288 749.007 155.343 753.613 Q158.422 758.196 158.422 766.946 Q158.422 775.673 155.343 780.28 Q152.288 784.863 146.478 784.863 Q140.668 784.863 137.589 780.28 Q134.533 775.673 134.533 766.946 Q134.533 758.196 137.589 753.613 Q140.668 749.007 146.478 749.007 Z" fill="#000000" fill-rule="evenodd" fill-opacity="1" /><path clip-path="url(#clip390)" d="M176.64 752.71 Q173.029 752.71 171.2 756.275 Q169.394 759.817 169.394 766.946 Q169.394 774.053 171.2 777.618 Q173.029 781.159 176.64 781.159 Q180.274 781.159 182.079 777.618 Q183.908 774.053 183.908 766.946 Q183.908 759.817 182.079 756.275 Q180.274 752.71 176.64 752.71 M176.64 749.007 Q182.45 749.007 185.505 753.613 Q188.584 758.196 188.584 766.946 Q188.584 775.673 185.505 780.28 Q182.45 784.863 176.64 784.863 Q170.829 784.863 167.751 780.28 Q164.695 775.673 164.695 766.946 Q164.695 758.196 167.751 753.613 Q170.829 749.007 176.64 749.007 Z" fill="#000000" fill-rule="evenodd" fill-opacity="1" /><path clip-path="url(#clip390)" d="M102.844 493.376 Q99.2326 493.376 97.4039 496.941 Q95.5984 500.483 95.5984 507.612 Q95.5984 514.719 97.4039 518.283 Q99.2326 521.825 102.844 521.825 Q106.478 521.825 108.283 518.283 Q110.112 514.719 110.112 507.612 Q110.112 500.483 108.283 496.941 Q106.478 493.376 102.844 493.376 M102.844 489.672 Q108.654 489.672 111.709 494.279 Q114.788 498.862 114.788 507.612 Q114.788 516.339 111.709 520.945 Q108.654 525.529 102.844 525.529 Q97.0335 525.529 93.9549 520.945 Q90.8993 516.339 90.8993 507.612 Q90.8993 498.862 93.9549 494.279 Q97.0335 489.672 102.844 489.672 Z" fill="#000000" fill-rule="evenodd" fill-opacity="1" /><path clip-path="url(#clip390)" d="M123.006 518.978 L127.89 518.978 L127.89 524.857 L123.006 524.857 L123.006 518.978 Z" fill="#000000" fill-rule="evenodd" fill-opacity="1" /><path clip-path="url(#clip390)" d="M148.075 493.376 Q144.464 493.376 142.635 496.941 Q140.83 500.483 140.83 507.612 Q140.83 514.719 142.635 518.283 Q144.464 521.825 148.075 521.825 Q151.709 521.825 153.515 518.283 Q155.343 514.719 155.343 507.612 Q155.343 500.483 153.515 496.941 Q151.709 493.376 148.075 493.376 M148.075 489.672 Q153.885 489.672 156.941 494.279 Q160.019 498.862 160.019 507.612 Q160.019 516.339 156.941 520.945 Q153.885 525.529 148.075 525.529 Q142.265 525.529 139.186 520.945 Q136.131 516.339 136.131 507.612 Q136.131 498.862 139.186 494.279 Q142.265 489.672 148.075 489.672 Z" fill="#000000" fill-rule="evenodd" fill-opacity="1" /><path clip-path="url(#clip390)" d="M172.265 520.922 L188.584 520.922 L188.584 524.857 L166.64 524.857 L166.64 520.922 Q169.302 518.168 173.885 513.538 Q178.491 508.885 179.672 507.543 Q181.917 505.02 182.797 503.284 Q183.7 501.524 183.7 499.834 Q183.7 497.08 181.755 495.344 Q179.834 493.608 176.732 493.608 Q174.533 493.608 172.079 494.372 Q169.649 495.135 166.871 496.686 L166.871 491.964 Q169.695 490.83 172.149 490.251 Q174.603 489.672 176.64 489.672 Q182.01 489.672 185.204 492.358 Q188.399 495.043 188.399 499.534 Q188.399 501.663 187.589 503.584 Q186.802 505.483 184.695 508.075 Q184.116 508.746 181.015 511.964 Q177.913 515.158 172.265 520.922 Z" fill="#000000" fill-rule="evenodd" fill-opacity="1" /><path clip-path="url(#clip390)" d="M100.76 234.042 Q97.1493 234.042 95.3206 237.607 Q93.515 241.148 93.515 248.278 Q93.515 255.384 95.3206 258.949 Q97.1493 262.491 100.76 262.491 Q104.395 262.491 106.2 258.949 Q108.029 255.384 108.029 248.278 Q108.029 241.148 106.2 237.607 Q104.395 234.042 100.76 234.042 M100.76 230.338 Q106.571 230.338 109.626 234.945 Q112.705 239.528 112.705 248.278 Q112.705 257.005 109.626 261.611 Q106.571 266.195 100.76 266.195 Q94.9502 266.195 91.8715 261.611 Q88.816 257.005 88.816 248.278 Q88.816 239.528 91.8715 234.945 Q94.9502 230.338 100.76 230.338 Z" fill="#000000" fill-rule="evenodd" fill-opacity="1" /><path clip-path="url(#clip390)" d="M120.922 259.644 L125.807 259.644 L125.807 265.523 L120.922 265.523 L120.922 259.644 Z" fill="#000000" fill-rule="evenodd" fill-opacity="1" /><path clip-path="url(#clip390)" d="M145.992 234.042 Q142.381 234.042 140.552 237.607 Q138.746 241.148 138.746 248.278 Q138.746 255.384 140.552 258.949 Q142.381 262.491 145.992 262.491 Q149.626 262.491 151.431 258.949 Q153.26 255.384 153.26 248.278 Q153.26 241.148 151.431 237.607 Q149.626 234.042 145.992 234.042 M145.992 230.338 Q151.802 230.338 154.857 234.945 Q157.936 239.528 157.936 248.278 Q157.936 257.005 154.857 261.611 Q151.802 266.195 145.992 266.195 Q140.181 266.195 137.103 261.611 Q134.047 257.005 134.047 248.278 Q134.047 239.528 137.103 234.945 Q140.181 230.338 145.992 230.338 Z" fill="#000000" fill-rule="evenodd" fill-opacity="1" /><path clip-path="url(#clip390)" d="M179.001 235.037 L167.195 253.486 L179.001 253.486 L179.001 235.037 M177.774 230.963 L183.653 230.963 L183.653 253.486 L188.584 253.486 L188.584 257.375 L183.653 257.375 L183.653 265.523 L179.001 265.523 L179.001 257.375 L163.399 257.375 L163.399 252.861 L177.774 230.963 Z" fill="#000000" fill-rule="evenodd" fill-opacity="1" /><circle clip-path="url(#clip392)" cx="284.815" cy="87.9763" r="14" fill="#009af9" fill-rule="evenodd" fill-opacity="1" stroke="#000000" stroke-opacity="1" stroke-width="3.2"/>
<circle clip-path="url(#clip392)" cx="294.722" cy="91.1855" r="14" fill="#009af9" fill-rule="evenodd" fill-opacity="1" stroke="#000000" stroke-opacity="1" stroke-width="3.2"/>
<circle clip-path="url(#clip392)" cx="312.099" cy="112.191" r="14" fill="#009af9" fill-rule="evenodd" fill-opacity="1" stroke="#000000" stroke-opacity="1" stroke-width="3.2"/>
<circle clip-path="url(#clip392)" cx="332.674" cy="161.559" r="14" fill="#009af9" fill-rule="evenodd" fill-opacity="1" stroke="#000000" stroke-opacity="1" stroke-width="3.2"/>
<circle clip-path="url(#clip392)" cx="357.619" cy="254.162" r="14" fill="#009af9" fill-rule="evenodd" fill-opacity="1" stroke="#000000" stroke-opacity="1" stroke-width="3.2"/>
<circle clip-path="url(#clip392)" cx="385.219" cy="391.998" r="14" fill="#009af9" fill-rule="evenodd" fill-opacity="1" stroke="#000000" stroke-opacity="1" stroke-width="3.2"/>
<circle clip-path="url(#clip392)" cx="415.324" cy="573.138" r="14" fill="#009af9" fill-rule="evenodd" fill-opacity="1" stroke="#000000" stroke-opacity="1" stroke-width="3.2"/>
<circle clip-path="url(#clip392)" cx="447.179" cy="782.74" r="14" fill="#009af9" fill-rule="evenodd" fill-opacity="1" stroke="#000000" stroke-opacity="1" stroke-width="3.2"/>
<circle clip-path="url(#clip392)" cx="480.57" cy="1000.46" r="14" fill="#009af9" fill-rule="evenodd" fill-opacity="1" stroke="#000000" stroke-opacity="1" stroke-width="3.2"/>
<circle clip-path="url(#clip392)" cx="515.345" cy="1200.43" r="14" fill="#009af9" fill-rule="evenodd" fill-opacity="1" stroke="#000000" stroke-opacity="1" stroke-width="3.2"/>
<circle clip-path="url(#clip392)" cx="551.582" cy="1355.28" r="14" fill="#009af9" fill-rule="evenodd" fill-opacity="1" stroke="#000000" stroke-opacity="1" stroke-width="3.2"/>
<circle clip-path="url(#clip392)" cx="589.475" cy="1438.18" r="14" fill="#009af9" fill-rule="evenodd" fill-opacity="1" stroke="#000000" stroke-opacity="1" stroke-width="3.2"/>
<circle clip-path="url(#clip392)" cx="629.564" cy="1425.87" r="14" fill="#009af9" fill-rule="evenodd" fill-opacity="1" stroke="#000000" stroke-opacity="1" stroke-width="3.2"/>
<circle clip-path="url(#clip392)" cx="672.735" cy="1300.31" r="14" fill="#009af9" fill-rule="evenodd" fill-opacity="1" stroke="#000000" stroke-opacity="1" stroke-width="3.2"/>
<circle clip-path="url(#clip392)" cx="717.782" cy="1069.2" r="14" fill="#009af9" fill-rule="evenodd" fill-opacity="1" stroke="#000000" stroke-opacity="1" stroke-width="3.2"/>
<circle clip-path="url(#clip392)" cx="760.765" cy="793.672" r="14" fill="#009af9" fill-rule="evenodd" fill-opacity="1" stroke="#000000" stroke-opacity="1" stroke-width="3.2"/>
<circle clip-path="url(#clip392)" cx="803.124" cy="517.311" r="14" fill="#009af9" fill-rule="evenodd" fill-opacity="1" stroke="#000000" stroke-opacity="1" stroke-width="3.2"/>
<circle clip-path="url(#clip392)" cx="844.931" cy="286.096" r="14" fill="#009af9" fill-rule="evenodd" fill-opacity="1" stroke="#000000" stroke-opacity="1" stroke-width="3.2"/>
<circle clip-path="url(#clip392)" cx="887.023" cy="134.069" r="14" fill="#009af9" fill-rule="evenodd" fill-opacity="1" stroke="#000000" stroke-opacity="1" stroke-width="3.2"/>
<circle clip-path="url(#clip392)" cx="929.946" cy="88.8537" r="14" fill="#009af9" fill-rule="evenodd" fill-opacity="1" stroke="#000000" stroke-opacity="1" stroke-width="3.2"/>
<circle clip-path="url(#clip392)" cx="974.853" cy="168.419" r="14" fill="#009af9" fill-rule="evenodd" fill-opacity="1" stroke="#000000" stroke-opacity="1" stroke-width="3.2"/>
<circle clip-path="url(#clip392)" cx="1022.68" cy="378.239" r="14" fill="#009af9" fill-rule="evenodd" fill-opacity="1" stroke="#000000" stroke-opacity="1" stroke-width="3.2"/>
<circle clip-path="url(#clip392)" cx="1068.73" cy="660.542" r="14" fill="#009af9" fill-rule="evenodd" fill-opacity="1" stroke="#000000" stroke-opacity="1" stroke-width="3.2"/>
<circle clip-path="url(#clip392)" cx="1112.89" cy="952.095" r="14" fill="#009af9" fill-rule="evenodd" fill-opacity="1" stroke="#000000" stroke-opacity="1" stroke-width="3.2"/>
<circle clip-path="url(#clip392)" cx="1156.15" cy="1204.8" r="14" fill="#009af9" fill-rule="evenodd" fill-opacity="1" stroke="#000000" stroke-opacity="1" stroke-width="3.2"/>
<circle clip-path="url(#clip392)" cx="1199.19" cy="1379.06" r="14" fill="#009af9" fill-rule="evenodd" fill-opacity="1" stroke="#000000" stroke-opacity="1" stroke-width="3.2"/>
<circle clip-path="url(#clip392)" cx="1242.74" cy="1445.72" r="14" fill="#009af9" fill-rule="evenodd" fill-opacity="1" stroke="#000000" stroke-opacity="1" stroke-width="3.2"/>
<circle clip-path="url(#clip392)" cx="1287.89" cy="1385.84" r="14" fill="#009af9" fill-rule="evenodd" fill-opacity="1" stroke="#000000" stroke-opacity="1" stroke-width="3.2"/>
<circle clip-path="url(#clip392)" cx="1335.93" cy="1191.47" r="14" fill="#009af9" fill-rule="evenodd" fill-opacity="1" stroke="#000000" stroke-opacity="1" stroke-width="3.2"/>
<circle clip-path="url(#clip392)" cx="1383.01" cy="910.622" r="14" fill="#009af9" fill-rule="evenodd" fill-opacity="1" stroke="#000000" stroke-opacity="1" stroke-width="3.2"/>
<circle clip-path="url(#clip392)" cx="1427.59" cy="615.8" r="14" fill="#009af9" fill-rule="evenodd" fill-opacity="1" stroke="#000000" stroke-opacity="1" stroke-width="3.2"/>
<circle clip-path="url(#clip392)" cx="1471.24" cy="354.407" r="14" fill="#009af9" fill-rule="evenodd" fill-opacity="1" stroke="#000000" stroke-opacity="1" stroke-width="3.2"/>
<circle clip-path="url(#clip392)" cx="1514.47" cy="168.955" r="14" fill="#009af9" fill-rule="evenodd" fill-opacity="1" stroke="#000000" stroke-opacity="1" stroke-width="3.2"/>
<circle clip-path="url(#clip392)" cx="1558.1" cy="89.4097" r="14" fill="#009af9" fill-rule="evenodd" fill-opacity="1" stroke="#000000" stroke-opacity="1" stroke-width="3.2"/>
<circle clip-path="url(#clip392)" cx="1603.15" cy="135.73" r="14" fill="#009af9" fill-rule="evenodd" fill-opacity="1" stroke="#000000" stroke-opacity="1" stroke-width="3.2"/>
<circle clip-path="url(#clip392)" cx="1651.01" cy="317.398" r="14" fill="#009af9" fill-rule="evenodd" fill-opacity="1" stroke="#000000" stroke-opacity="1" stroke-width="3.2"/>
<circle clip-path="url(#clip392)" cx="1698.58" cy="594.667" r="14" fill="#009af9" fill-rule="evenodd" fill-opacity="1" stroke="#000000" stroke-opacity="1" stroke-width="3.2"/>
<circle clip-path="url(#clip392)" cx="1743.33" cy="890.359" r="14" fill="#009af9" fill-rule="evenodd" fill-opacity="1" stroke="#000000" stroke-opacity="1" stroke-width="3.2"/>
<circle clip-path="url(#clip392)" cx="1787.15" cy="1157.57" r="14" fill="#009af9" fill-rule="evenodd" fill-opacity="1" stroke="#000000" stroke-opacity="1" stroke-width="3.2"/>
<circle clip-path="url(#clip392)" cx="1830.41" cy="1351.67" r="14" fill="#009af9" fill-rule="evenodd" fill-opacity="1" stroke="#000000" stroke-opacity="1" stroke-width="3.2"/>
<circle clip-path="url(#clip392)" cx="1874.02" cy="1442.12" r="14" fill="#009af9" fill-rule="evenodd" fill-opacity="1" stroke="#000000" stroke-opacity="1" stroke-width="3.2"/>
<circle clip-path="url(#clip392)" cx="1918.9" cy="1407.92" r="14" fill="#009af9" fill-rule="evenodd" fill-opacity="1" stroke="#000000" stroke-opacity="1" stroke-width="3.2"/>
<circle clip-path="url(#clip392)" cx="1966.51" cy="1238.36" r="14" fill="#009af9" fill-rule="evenodd" fill-opacity="1" stroke="#000000" stroke-opacity="1" stroke-width="3.2"/>
<circle clip-path="url(#clip392)" cx="2014.44" cy="965.584" r="14" fill="#009af9" fill-rule="evenodd" fill-opacity="1" stroke="#000000" stroke-opacity="1" stroke-width="3.2"/>
<circle clip-path="url(#clip392)" cx="2059.31" cy="669.74" r="14" fill="#009af9" fill-rule="evenodd" fill-opacity="1" stroke="#000000" stroke-opacity="1" stroke-width="3.2"/>
<circle clip-path="url(#clip392)" cx="2103.26" cy="397.651" r="14" fill="#009af9" fill-rule="evenodd" fill-opacity="1" stroke="#000000" stroke-opacity="1" stroke-width="3.2"/>
<circle clip-path="url(#clip392)" cx="2146.52" cy="195.661" r="14" fill="#009af9" fill-rule="evenodd" fill-opacity="1" stroke="#000000" stroke-opacity="1" stroke-width="3.2"/>
<circle clip-path="url(#clip392)" cx="2190.09" cy="94.9252" r="14" fill="#009af9" fill-rule="evenodd" fill-opacity="1" stroke="#000000" stroke-opacity="1" stroke-width="3.2"/>
<circle clip-path="url(#clip392)" cx="2234.81" cy="117.477" r="14" fill="#009af9" fill-rule="evenodd" fill-opacity="1" stroke="#000000" stroke-opacity="1" stroke-width="3.2"/>
<circle clip-path="url(#clip392)" cx="2282.14" cy="275.054" r="14" fill="#009af9" fill-rule="evenodd" fill-opacity="1" stroke="#000000" stroke-opacity="1" stroke-width="3.2"/>
<circle clip-path="url(#clip392)" cx="2292.52" cy="325.251" r="14" fill="#009af9" fill-rule="evenodd" fill-opacity="1" stroke="#000000" stroke-opacity="1" stroke-width="3.2"/>
<polyline clip-path="url(#clip392)" style="stroke:#e26f46; stroke-linecap:butt; stroke-linejoin:round; stroke-width:4; stroke-opacity:1; fill:none" points="
  284.815,87.9763 294.722,91.1855 312.099,112.191 332.674,161.559 357.619,254.162 385.219,391.998 415.324,573.138 447.179,782.74 480.57,1000.46 515.345,1200.43 
  551.582,1355.28 589.475,1438.18 629.564,1425.87 672.735,1300.31 717.782,1069.2 760.765,793.674 803.124,517.313 844.931,286.097 887.023,134.07 929.946,88.8531 
  974.853,168.417 1022.68,378.235 1068.73,660.537 1112.89,952.09 1156.15,1204.79 1199.19,1379.05 1242.74,1445.72 1287.89,1385.85 1335.93,1191.48 1383.01,910.631 
  1427.59,615.809 1471.24,354.414 1514.47,168.959 1558.1,89.4096 1603.15,135.725 1651.01,317.388 1698.58,594.655 1743.33,890.347 1787.15,1157.56 1830.41,1351.66 
  1874.02,1442.12 1918.9,1407.92 1966.51,1238.37 2014.44,965.6 2059.31,669.757 2103.26,397.665 2146.52,195.67 2190.09,94.9265 2234.81,117.47 2282.14,275.04 
  2292.52,325.236 
  "/>
<path clip-path="url(#clip390)" d="
M1812.65 276.658 L2281.82 276.658 L2281.82 95.2176 L1812.65 95.2176  Z
  " fill="#ffffff" fill-rule="evenodd" fill-opacity="1"/>
<polyline clip-path="url(#clip390)" style="stroke:#000000; stroke-linecap:butt; stroke-linejoin:round; stroke-width:4; stroke-opacity:1; fill:none" points="
  1812.65,276.658 2281.82,276.658 2281.82,95.2176 1812.65,95.2176 1812.65,276.658 
  "/>
<circle clip-path="url(#clip390)" cx="1907.23" cy="155.698" r="23" fill="#009af9" fill-rule="evenodd" fill-opacity="1" stroke="#000000" stroke-opacity="1" stroke-width="5.12"/>
<path clip-path="url(#clip390)" d="M2001.82 138.418 L2008.11 138.418 L2023.44 167.329 L2023.44 138.418 L2027.97 138.418 L2027.97 172.978 L2021.68 172.978 L2006.35 144.066 L2006.35 172.978 L2001.82 172.978 L2001.82 138.418 Z" fill="#000000" fill-rule="evenodd" fill-opacity="1" /><path clip-path="url(#clip390)" d="M2036.65 162.746 L2036.65 147.052 L2040.91 147.052 L2040.91 162.584 Q2040.91 166.265 2042.35 168.116 Q2043.78 169.945 2046.65 169.945 Q2050.1 169.945 2052.09 167.746 Q2054.11 165.547 2054.11 161.751 L2054.11 147.052 L2058.37 147.052 L2058.37 172.978 L2054.11 172.978 L2054.11 168.996 Q2052.56 171.357 2050.5 172.515 Q2048.46 173.649 2045.75 173.649 Q2041.28 173.649 2038.97 170.871 Q2036.65 168.093 2036.65 162.746 M2047.37 146.427 L2047.37 146.427 Z" fill="#000000" fill-rule="evenodd" fill-opacity="1" /><path clip-path="url(#clip390)" d="M2087.33 152.029 Q2088.92 149.158 2091.15 147.793 Q2093.37 146.427 2096.38 146.427 Q2100.43 146.427 2102.63 149.274 Q2104.83 152.098 2104.83 157.329 L2104.83 172.978 L2100.54 172.978 L2100.54 157.468 Q2100.54 153.742 2099.22 151.936 Q2097.9 150.13 2095.2 150.13 Q2091.89 150.13 2089.96 152.33 Q2088.04 154.529 2088.04 158.325 L2088.04 172.978 L2083.76 172.978 L2083.76 157.468 Q2083.76 153.718 2082.44 151.936 Q2081.12 150.13 2078.37 150.13 Q2075.1 150.13 2073.18 152.353 Q2071.26 154.552 2071.26 158.325 L2071.26 172.978 L2066.98 172.978 L2066.98 147.052 L2071.26 147.052 L2071.26 151.08 Q2072.72 148.695 2074.76 147.561 Q2076.79 146.427 2079.59 146.427 Q2082.42 146.427 2084.39 147.862 Q2086.38 149.297 2087.33 152.029 Z" fill="#000000" fill-rule="evenodd" fill-opacity="1" /><path clip-path="url(#clip390)" d="M2135.5 158.95 L2135.5 161.033 L2115.91 161.033 Q2116.19 165.431 2118.55 167.746 Q2120.94 170.038 2125.17 170.038 Q2127.63 170.038 2129.92 169.436 Q2132.23 168.834 2134.5 167.63 L2134.5 171.658 Q2132.21 172.63 2129.8 173.14 Q2127.4 173.649 2124.92 173.649 Q2118.71 173.649 2115.08 170.038 Q2111.47 166.427 2111.47 160.269 Q2111.47 153.904 2114.9 150.177 Q2118.34 146.427 2124.18 146.427 Q2129.41 146.427 2132.44 149.806 Q2135.5 153.163 2135.5 158.95 M2131.24 157.7 Q2131.19 154.205 2129.27 152.121 Q2127.37 150.038 2124.22 150.038 Q2120.66 150.038 2118.51 152.052 Q2116.38 154.066 2116.05 157.723 L2131.24 157.7 Z" fill="#000000" fill-rule="evenodd" fill-opacity="1" /><path clip-path="url(#clip390)" d="M2157.51 151.033 Q2156.79 150.617 2155.94 150.431 Q2155.1 150.223 2154.08 150.223 Q2150.47 150.223 2148.53 152.584 Q2146.61 154.922 2146.61 159.32 L2146.61 172.978 L2142.33 172.978 L2142.33 147.052 L2146.61 147.052 L2146.61 151.08 Q2147.95 148.718 2150.1 147.584 Q2152.26 146.427 2155.33 146.427 Q2155.77 146.427 2156.31 146.496 Q2156.84 146.543 2157.49 146.658 L2157.51 151.033 Z" fill="#000000" fill-rule="evenodd" fill-opacity="1" /><path clip-path="url(#clip390)" d="M2161.98 147.052 L2166.24 147.052 L2166.24 172.978 L2161.98 172.978 L2161.98 147.052 M2161.98 136.959 L2166.24 136.959 L2166.24 142.353 L2161.98 142.353 L2161.98 136.959 Z" fill="#000000" fill-rule="evenodd" fill-opacity="1" /><path clip-path="url(#clip390)" d="M2193.81 148.047 L2193.81 152.029 Q2192 151.033 2190.17 150.547 Q2188.37 150.038 2186.52 150.038 Q2182.37 150.038 2180.08 152.677 Q2177.79 155.292 2177.79 160.038 Q2177.79 164.783 2180.08 167.422 Q2182.37 170.038 2186.52 170.038 Q2188.37 170.038 2190.17 169.552 Q2192 169.042 2193.81 168.047 L2193.81 171.982 Q2192.02 172.816 2190.1 173.232 Q2188.2 173.649 2186.05 173.649 Q2180.2 173.649 2176.75 169.968 Q2173.3 166.288 2173.3 160.038 Q2173.3 153.695 2176.77 150.061 Q2180.27 146.427 2186.33 146.427 Q2188.3 146.427 2190.17 146.843 Q2192.05 147.237 2193.81 148.047 Z" fill="#000000" fill-rule="evenodd" fill-opacity="1" /><path clip-path="url(#clip390)" d="M2213 159.945 Q2207.83 159.945 2205.84 161.126 Q2203.85 162.306 2203.85 165.154 Q2203.85 167.422 2205.33 168.765 Q2206.84 170.084 2209.41 170.084 Q2212.95 170.084 2215.08 167.584 Q2217.23 165.061 2217.23 160.894 L2217.23 159.945 L2213 159.945 M2221.49 158.186 L2221.49 172.978 L2217.23 172.978 L2217.23 169.042 Q2215.77 171.403 2213.6 172.538 Q2211.42 173.649 2208.27 173.649 Q2204.29 173.649 2201.93 171.427 Q2199.59 169.181 2199.59 165.431 Q2199.59 161.056 2202.51 158.834 Q2205.45 156.612 2211.26 156.612 L2217.23 156.612 L2217.23 156.195 Q2217.23 153.255 2215.29 151.658 Q2213.37 150.038 2209.87 150.038 Q2207.65 150.038 2205.54 150.57 Q2203.44 151.103 2201.49 152.167 L2201.49 148.232 Q2203.83 147.33 2206.03 146.89 Q2208.23 146.427 2210.31 146.427 Q2215.94 146.427 2218.71 149.343 Q2221.49 152.26 2221.49 158.186 Z" fill="#000000" fill-rule="evenodd" fill-opacity="1" /><path clip-path="url(#clip390)" d="M2230.26 136.959 L2234.52 136.959 L2234.52 172.978 L2230.26 172.978 L2230.26 136.959 Z" fill="#000000" fill-rule="evenodd" fill-opacity="1" /><polyline clip-path="url(#clip390)" style="stroke:#e26f46; stroke-linecap:butt; stroke-linejoin:round; stroke-width:4; stroke-opacity:1; fill:none" points="
  1836.29,216.178 1978.17,216.178 
  "/>
<path clip-path="url(#clip390)" d="M2017.65 203.504 L2011.31 220.703 L2024.02 220.703 L2017.65 203.504 M2015.01 198.898 L2020.31 198.898 L2033.48 233.458 L2028.62 233.458 L2025.47 224.592 L2009.9 224.592 L2006.75 233.458 L2001.82 233.458 L2015.01 198.898 Z" fill="#000000" fill-rule="evenodd" fill-opacity="1" /><path clip-path="url(#clip390)" d="M2059.9 217.809 L2059.9 233.458 L2055.64 233.458 L2055.64 217.948 Q2055.64 214.268 2054.2 212.439 Q2052.77 210.61 2049.9 210.61 Q2046.45 210.61 2044.46 212.81 Q2042.46 215.009 2042.46 218.805 L2042.46 233.458 L2038.18 233.458 L2038.18 207.532 L2042.46 207.532 L2042.46 211.56 Q2043.99 209.222 2046.05 208.064 Q2048.14 206.907 2050.84 206.907 Q2055.31 206.907 2057.6 209.685 Q2059.9 212.439 2059.9 217.809 Z" fill="#000000" fill-rule="evenodd" fill-opacity="1" /><path clip-path="url(#clip390)" d="M2080.17 220.425 Q2075.01 220.425 2073.02 221.606 Q2071.03 222.786 2071.03 225.634 Q2071.03 227.902 2072.51 229.245 Q2074.02 230.564 2076.59 230.564 Q2080.13 230.564 2082.26 228.064 Q2084.41 225.541 2084.41 221.374 L2084.41 220.425 L2080.17 220.425 M2088.67 218.666 L2088.67 233.458 L2084.41 233.458 L2084.41 229.522 Q2082.95 231.883 2080.77 233.018 Q2078.6 234.129 2075.45 234.129 Q2071.47 234.129 2069.11 231.907 Q2066.77 229.661 2066.77 225.911 Q2066.77 221.536 2069.69 219.314 Q2072.63 217.092 2078.44 217.092 L2084.41 217.092 L2084.41 216.675 Q2084.41 213.735 2082.46 212.138 Q2080.54 210.518 2077.05 210.518 Q2074.83 210.518 2072.72 211.05 Q2070.61 211.583 2068.67 212.647 L2068.67 208.712 Q2071.01 207.81 2073.21 207.37 Q2075.4 206.907 2077.49 206.907 Q2083.11 206.907 2085.89 209.823 Q2088.67 212.74 2088.67 218.666 Z" fill="#000000" fill-rule="evenodd" fill-opacity="1" /><path clip-path="url(#clip390)" d="M2097.44 197.439 L2101.7 197.439 L2101.7 233.458 L2097.44 233.458 L2097.44 197.439 Z" fill="#000000" fill-rule="evenodd" fill-opacity="1" /><path clip-path="url(#clip390)" d="M2121.4 235.865 Q2119.59 240.495 2117.88 241.907 Q2116.17 243.319 2113.3 243.319 L2109.9 243.319 L2109.9 239.754 L2112.4 239.754 Q2114.15 239.754 2115.13 238.92 Q2116.1 238.087 2117.28 234.985 L2118.04 233.041 L2107.56 207.532 L2112.07 207.532 L2120.17 227.809 L2128.27 207.532 L2132.79 207.532 L2121.4 235.865 Z" fill="#000000" fill-rule="evenodd" fill-opacity="1" /><path clip-path="url(#clip390)" d="M2142.88 200.171 L2142.88 207.532 L2151.65 207.532 L2151.65 210.842 L2142.88 210.842 L2142.88 224.916 Q2142.88 228.087 2143.74 228.99 Q2144.62 229.893 2147.28 229.893 L2151.65 229.893 L2151.65 233.458 L2147.28 233.458 Q2142.35 233.458 2140.47 231.629 Q2138.6 229.777 2138.6 224.916 L2138.6 210.842 L2135.47 210.842 L2135.47 207.532 L2138.6 207.532 L2138.6 200.171 L2142.88 200.171 Z" fill="#000000" fill-rule="evenodd" fill-opacity="1" /><path clip-path="url(#clip390)" d="M2157.26 207.532 L2161.52 207.532 L2161.52 233.458 L2157.26 233.458 L2157.26 207.532 M2157.26 197.439 L2161.52 197.439 L2161.52 202.833 L2157.26 202.833 L2157.26 197.439 Z" fill="#000000" fill-rule="evenodd" fill-opacity="1" /><path clip-path="url(#clip390)" d="M2189.08 208.527 L2189.08 212.509 Q2187.28 211.513 2185.45 211.027 Q2183.64 210.518 2181.79 210.518 Q2177.65 210.518 2175.36 213.157 Q2173.07 215.772 2173.07 220.518 Q2173.07 225.263 2175.36 227.902 Q2177.65 230.518 2181.79 230.518 Q2183.64 230.518 2185.45 230.032 Q2187.28 229.522 2189.08 228.527 L2189.08 232.462 Q2187.3 233.296 2185.38 233.712 Q2183.48 234.129 2181.33 234.129 Q2175.47 234.129 2172.02 230.448 Q2168.58 226.768 2168.58 220.518 Q2168.58 214.175 2172.05 210.541 Q2175.54 206.907 2181.61 206.907 Q2183.58 206.907 2185.45 207.323 Q2187.33 207.717 2189.08 208.527 Z" fill="#000000" fill-rule="evenodd" fill-opacity="1" /></svg>
